<?xml version="1.0" standalone="no"?>
<!DOCTYPE svg PUBLIC "-//W3C//DTD SVG 1.1//EN" "http://www.w3.org/Graphics/SVG/1.1/DTD/svg11.dtd" >
<svg xmlns="http://www.w3.org/2000/svg" xmlns:xlink="http://www.w3.org/1999/xlink" version="1.1">
<metadata></metadata>
<defs>
<font id="glamormedium" horiz-adv-x="339" >
<font-face units-per-em="2048" ascent="1438" descent="-610" />
<missing-glyph horiz-adv-x="614" />
<glyph horiz-adv-x="0" />
<glyph unicode="&#xd;" horiz-adv-x="0" />
<glyph horiz-adv-x="0" />
<glyph horiz-adv-x="0" />
<glyph horiz-adv-x="948" d="M61 791v40h826v-831h-238v791h-588z" />
<glyph unicode=" "  horiz-adv-x="614" />
<glyph unicode="&#x09;" horiz-adv-x="614" />
<glyph unicode="&#xa0;" horiz-adv-x="614" />
<glyph unicode="!" d="M61 121q0 49 32 85t77 36t77 -36t32 -85t-32 -85t-77 -36t-77 36t-32 85zM152 406v1034h36v-1034h-36z" />
<glyph unicode="&#x22;" horiz-adv-x="749" d="M61 1239q0 92 62.5 148.5t167.5 58.5v-39q-109 0 -154 -64q27 10 55.5 7.5t51 -17t38 -39t15.5 -55.5q0 -47 -35 -80t-84 -33q-47 0 -82 33t-35 80zM453 1333q0 47 34.5 80t81.5 33q49 0 84 -33t35 -80q0 -92 -62.5 -149.5t-168.5 -57.5v39q111 0 155 64 q-29 -10 -56.5 -7t-51 17t-37.5 39t-14 55z" />
<glyph unicode="#" horiz-adv-x="942" d="M61 197v41h148l88 354h-236v41h246l49 196l39 -10l-47 -186h354l50 196l39 -10l-48 -186h138v-41h-148l-88 -354h236v-41h-246l-49 -195l-39 8l47 187h-354l-50 -195l-38 8l47 187h-138zM250 238h354l88 354h-354z" />
<glyph unicode="$" horiz-adv-x="1159" d="M61 522q0 49 35 85t86 36q49 0 84 -36t35 -85q0 -37 -18.5 -64.5t-46 -43t-60.5 -14.5t-61 22q35 -174 145.5 -274.5t290.5 -108.5v967q-86 12 -138.5 69.5t-52.5 151.5t52.5 150.5t138.5 68.5v199h41v-197q94 0 150.5 -65.5t56.5 -157.5q0 -49 -36 -85t-85 -36 q-51 0 -86 39v-99q240 -12 372 -135t132 -389q0 -106 -39 -200.5t-107.5 -165t-161 -111.5t-196.5 -43v-197h-41v197q-172 4 -290 93t-171 257q-12 41 -20.5 84t-8.5 88zM401 1227q0 -76 40 -122t110 -56v356q-70 -10 -110 -56t-40 -122zM592 39q55 2 103 25.5t84 61.5 t56.5 87t20.5 106v404q0 119 -75.5 194.5t-188.5 86.5v-965zM592 1311q27 27 61.5 35t69.5 -7q-23 29 -57.5 47.5t-73.5 20.5v-96z" />
<glyph unicode="%" horiz-adv-x="749" d="M57 14l598 1432l37 -16l-598 -1430zM61 1223q0 45 16.5 86t46.5 71.5t68.5 48t83.5 17.5t84 -17.5t68 -48t46.5 -71.5t17.5 -86t-17.5 -85t-46.5 -71t-68 -48.5t-84 -17.5t-83.5 17.5t-68.5 48.5t-46.5 71t-16.5 85zM199 1124q0 -33 23.5 -56.5t53.5 -23.5q35 0 56.5 23 t21.5 57v199q0 35 -22.5 57.5t-55.5 22.5t-55 -22.5t-22 -57.5v-199zM256 221q0 45 16.5 85t46 71t68.5 48t84 17t84 -17t68.5 -48t47 -71t17.5 -85t-17.5 -85t-47 -70.5t-68.5 -48t-84 -17.5q-43 0 -83 17.5t-68.5 48t-46 70.5t-17.5 85zM395 121q0 -33 22.5 -56.5 t53.5 -23.5q35 0 56.5 21.5t21.5 58.5v201q0 33 -22.5 56t-55.5 23q-31 0 -53.5 -23.5t-22.5 -55.5v-201z" />
<glyph unicode="&#x26;" horiz-adv-x="1259" d="M61 416q0 94 31 173t87.5 136t134 88t171.5 31q100 0 157.5 -61.5t57.5 -161.5q0 -49 -34.5 -84t-85.5 -35q-49 0 -84 34.5t-35 86.5q0 33 14 58.5t38 40.5t53.5 19t58.5 -8q-45 70 -146 70q-74 0 -126 -53.5t-52 -126.5v-402q0 -74 52.5 -127t125.5 -53q86 0 156 28.5 t119 80t76.5 121t27.5 151.5q0 90 -40 162.5t-99.5 132t-130 112t-133.5 101.5q-35 27 -70 58.5t-62.5 67.5t-45 78t-17.5 91q0 96 61.5 158.5t157.5 62.5q104 0 162.5 -59.5t58.5 -163.5q0 -49 -35.5 -84t-84.5 -35t-84 35t-35 86q0 33 14 58.5t38 40.5t53.5 19.5 t58.5 -8.5q-45 70 -146 70q-78 0 -128 -51t-50 -129q0 -41 15.5 -78t40 -68.5t55 -58.5t59.5 -51q57 -45 120.5 -91.5t122 -98.5t104.5 -113.5t67 -137.5q27 55 77 85t117 30q49 0 84 -36t35 -85q0 -51 -35 -86t-84 -35q-33 0 -59.5 15.5t-41.5 39t-19.5 53.5t8.5 58 q-68 -55 -68 -145t-30.5 -168t-86 -134.5t-132.5 -88t-171 -31.5q-90 0 -165.5 30.5t-132 86t-88.5 132.5t-32 167z" />
<glyph unicode="'" d="M61 1333q0 47 32 80t77 33t77 -34t32 -81q0 -90 -57.5 -147.5t-155.5 -57.5v39q100 0 143 62q-27 -10 -53.5 -6t-47 19t-34 40t-13.5 53z" />
<glyph unicode="(" horiz-adv-x="743" d="M61 723q0 131 42 260t122 231.5t195 166t262 65.5v-41q-82 0 -152.5 -31t-122 -82t-81 -119.5t-29.5 -148.5v-602q0 -80 29.5 -148.5t81 -121t122 -82t152.5 -29.5v-41q-158 0 -274.5 58.5t-193.5 158.5t-115 231.5t-38 274.5z" />
<glyph unicode=")" horiz-adv-x="743" d="M61 0v41q82 0 153 29.5t122 82t80.5 121t29.5 148.5v602q0 80 -29.5 148.5t-80.5 119.5t-122 81t-153 30v43q145 -2 261 -65.5t196 -166t122 -231.5t42 -260t-42 -260t-122 -232.5t-196 -167t-261 -63.5z" />
<glyph unicode="*" horiz-adv-x="544" d="M61 1235q0 37 26 59.5t67 22.5l63 -64h35v37l-64 64q0 41 22.5 66.5t61.5 25.5q37 0 59.5 -25.5t22.5 -66.5l-63 -64v-37h37l63 64q41 0 66.5 -22.5t25.5 -59.5q0 -39 -25.5 -61.5t-66.5 -22.5l-63 63h-37v-34l63 -64q0 -41 -21.5 -66.5t-60.5 -25.5t-61.5 25.5 t-22.5 66.5l64 64v34h-35l-63 -63q-41 0 -67 22.5t-26 61.5z" />
<glyph unicode="+" horiz-adv-x="942" d="M61 389v41h390v389h41v-389h389v-41h-389v-389h-41v389h-390z" />
<glyph unicode="," d="M61 104q0 47 32 80t77 33t77 -32.5t32 -80.5q0 -94 -55.5 -149t-157.5 -55v39q55 0 106 22.5t57 67.5q-29 -25 -58.5 -30t-54 5t-40 37t-15.5 63z" />
<glyph unicode="-" horiz-adv-x="942" d="M61 410v12h820v-12h-820z" />
<glyph unicode="." d="M61 109q0 45 32 76.5t77 31.5t77 -31.5t32 -76.5t-32 -77t-77 -32t-77 31.5t-32 77.5z" />
<glyph unicode="/" horiz-adv-x="747" d="M57 12l596 1430l37 -15l-596 -1429z" />
<glyph unicode="0" horiz-adv-x="954" d="M61 723q0 57 9.5 133t29 157t52 157.5t78.5 138t107.5 99.5t139.5 38t139.5 -38t107.5 -99.5t79 -138t52 -157.5t28.5 -157t9.5 -133t-9.5 -134t-28.5 -157t-52 -157.5t-79 -138t-107.5 -98.5t-139.5 -38t-139.5 38t-107.5 98.5t-78.5 138t-52 157.5t-29 157t-9.5 134z M299 221q0 -74 52 -127t126 -53q37 0 69 14.5t55.5 39t37.5 57t14 69.5v203q0 45 -13 83t-34.5 68.5t-51.5 57t-62 51.5q-53 41 -105.5 84t-87.5 102v-649zM299 1022q0 -47 13.5 -84t36 -68.5t51 -58.5t61.5 -51q53 -41 105 -83t87 -102v650q0 37 -14 69.5t-37.5 56 t-55.5 38t-69 14.5q-74 0 -126 -52.5t-52 -125.5v-203z" />
<glyph unicode="1" horiz-adv-x="737" d="M61 0v41h191v1362h-191v43h424v-1405h191v-41h-615z" />
<glyph unicode="2" horiz-adv-x="954" d="M61 0q0 106 33 185t89.5 139.5t129 110.5t152.5 104q33 20 66.5 53t60 71.5t44 79.5t17.5 80v402q0 76 -52 127t-128 51q-143 0 -233 -73t-123 -206q29 18 61.5 18.5t59 -14t44 -42t17.5 -62.5q0 -51 -35 -86t-84 -35q-66 0 -92.5 43t-26.5 96q0 193 113 298.5t301 105.5 q92 0 169 -32t131 -89t85 -135t31 -172t-34 -168t-90 -134.5t-128 -110.5t-147 -97q-66 -43 -133.5 -88t-123 -100.5t-92.5 -123t-41 -155.5h572q43 0 81 17.5t62 50.5q-29 -12 -58.5 -8.5t-53 20t-38 42t-14.5 58.5q0 49 35 85t84 36q57 0 89 -39t32 -90 q0 -102 -59.5 -157.5t-157.5 -55.5h-615z" />
<glyph unicode="3" horiz-adv-x="954" d="M61 422q0 53 33 87t86 34q49 0 84 -36t35 -85q0 -37 -17.5 -64.5t-44 -42t-59.5 -14.5t-61 18q33 -133 124 -205.5t232 -72.5q76 0 128 51t52 129v402q0 78 -49 129t-127 51q-31 0 -61.5 -6t-57 -21.5t-43 -40t-16.5 -61.5h-41q0 51 22.5 82.5t54.5 50t68.5 27t67.5 10.5 q59 4 96 35.5t37 93.5v301q0 57 -36 93t-91 36q-125 0 -164 -111q33 8 59.5 -12t26.5 -55q0 -29 -21.5 -50.5t-49.5 -21.5q-29 0 -49.5 21.5t-20.5 50.5q0 98 58.5 159.5t156.5 61.5q68 0 126 -24.5t101 -67.5t68 -102.5t25 -127.5q0 -100 -54.5 -182t-144.5 -117 q66 -18 120 -57t94 -92t62.5 -118.5t22.5 -135.5q0 -92 -32 -170t-88 -134.5t-133 -87t-167 -30.5q-92 0 -169 30.5t-130 86t-83 133.5t-30 172z" />
<glyph unicode="4" horiz-adv-x="958" d="M49 401l621 1047l35 -21l-584 -985h563q94 0 137 68q-29 -12 -57.5 -8t-52 20.5t-39 42t-15.5 58.5q0 49 36 84.5t85 35.5t84 -35.5t35 -84.5q0 -92 -53.5 -154t-145.5 -68v-401h-237v401h-412z" />
<glyph unicode="5" horiz-adv-x="954" d="M61 412q0 53 31 92t88 39q49 0 84 -36t35 -85q0 -37 -17.5 -64.5t-44 -42t-59.5 -14.5t-61 18q33 -133 125 -205.5t235 -72.5q74 0 125 53t51 127v402q0 37 -13 69.5t-36.5 57t-54.5 39t-68 14.5h-223v442h223q33 0 62.5 5.5t54.5 19.5q-33 4 -54.5 28.5t-21.5 59.5 t25.5 61.5t60.5 26.5t60.5 -26.5t25.5 -61.5q0 -41 -19.5 -69.5t-48 -47t-63.5 -27t-65 -10.5v-362q82 -6 154.5 -40t125.5 -89.5t84 -129t31 -161.5t-33 -165t-89 -134t-132 -90t-162 -33q-90 0 -165.5 29.5t-131 83t-87.5 130t-32 169.5z" />
<glyph unicode="6" horiz-adv-x="954" d="M61 707.5q2 154.5 0 310.5q0 199 109 313.5t307 114.5q98 0 158.5 -62.5t60.5 -160.5q0 -51 -35.5 -85t-82.5 -34q-49 0 -85 35t-36 86q0 31 14 57.5t37.5 41.5t53.5 19.5t59 -8.5q-45 70 -144 70q-78 0 -127 -50t-49 -130v-469q57 88 176 88q86 0 161 -34t132 -91 t90 -134t33 -163q0 -88 -33 -165t-89 -134t-132 -90t-162 -33q-84 0 -158.5 28.5t-130 81t-89 125t-36.5 160.5q-4 158 -2 312.5zM301 221q0 -76 51 -128t125 -52t126 53t52 127q0 59 -45.5 96t-113.5 72q-49 25 -104.5 54.5t-90.5 72.5v-295zM301 623q0 -59 46 -96.5 t114 -71.5q47 -27 103.5 -55.5t90.5 -71.5v295q0 74 -52 127t-126 53q-78 0 -127 -50.5t-49 -129.5z" />
<glyph unicode="7" horiz-adv-x="958" d="M53 0l594 1403h-364q-98 0 -144 -68q29 12 58.5 8t53 -19t38 -42t14.5 -57q0 -51 -35 -86t-84 -35q-53 0 -85.5 33.5t-35.5 85.5q0 49 15.5 90t45.5 70.5t69.5 46t87.5 16.5h624l-610 -1446h-242z" />
<glyph unicode="8" horiz-adv-x="954" d="M61 422q0 70 21.5 135.5t61.5 118.5t94.5 92t119.5 57q-88 37 -143 118t-55 181q0 66 25.5 124.5t68.5 102.5t100.5 69.5t122.5 25.5q66 0 123 -25.5t100 -69.5t68 -102.5t25 -124.5q0 -100 -54.5 -181t-144.5 -118q66 -18 120 -57t94 -92t61.5 -118.5t21.5 -135.5 q0 -96 -30 -174t-84 -133.5t-130 -85t-170 -29.5q-86 0 -160.5 34t-132 91t-90.5 134t-33 163zM299 221q0 -37 14.5 -69.5t38 -57t56 -39t69.5 -14.5q74 0 125 53t51 127q0 59 -45.5 96t-113.5 72q-47 25 -103.5 54.5t-91.5 72.5v-295zM299 623q0 -59 46 -96.5t114 -71.5 q49 -27 104 -56.5t90 -70.5v295q0 74 -51 127t-125 53t-126 -53.5t-52 -126.5zM348 973q0 -53 38 -91t91 -38q57 0 92 35.5t35 93.5q0 41 -32 67.5t-83 53.5q-35 18 -73.5 38.5t-67.5 49.5v-209zM348 1274q0 -41 33 -67.5t82 -53.5q35 -18 73.5 -38.5t67.5 -49.5v209 q0 53 -37 91t-90 38t-91 -38t-38 -91z" />
<glyph unicode="9" horiz-adv-x="954" d="M61 1024q0 86 33 163t89.5 134t132 91t161.5 34q84 0 159 -28.5t130 -81t89 -126t36 -161.5q4 -156 3 -310.5t-1 -312.5q0 -96 -28.5 -175t-83 -134.5t-131.5 -86t-173 -30.5q-98 0 -158.5 61.5t-60.5 159.5q0 51 35 86t86 35q49 0 84 -35t35 -86q0 -31 -14.5 -57.5 t-38 -42t-53.5 -20.5t-58 8q45 -68 143 -68q78 0 127 51t49 131v467q-29 -45 -73.5 -66.5t-102.5 -21.5q-86 0 -160.5 34t-132 91t-90.5 134t-33 163zM299 823q0 -76 52 -128t126 -52q78 0 127 50t49 130q0 59 -45.5 96t-113.5 72q-47 25 -102.5 54.5t-92.5 72.5v-295z M299 1223q0 -57 46 -95t114 -73q49 -25 104 -54.5t90 -70.5v295q0 74 -51 127t-125 53t-126 -53.5t-52 -128.5z" />
<glyph unicode=":" d="M61 119q0 49 32 84t77 35t77 -35t32 -84t-32 -84t-77 -35t-77 35t-32 84zM61 711q0 49 32 84.5t77 35.5t77 -35.5t32 -84.5t-32 -84t-77 -35t-77 35t-32 84z" />
<glyph unicode=";" d="M61 117q0 49 32 84t77 35t77 -35t32 -84q0 -92 -58.5 -154.5t-154.5 -62.5v41q100 0 143 65q-29 -12 -55.5 -7t-47 21.5t-33 42t-12.5 54.5zM61 711q0 49 32 84.5t77 35.5t77 -35.5t32 -84.5t-32 -84t-77 -35t-77 35t-32 84z" />
<glyph unicode="&#x3c;" horiz-adv-x="544" d="M55 416l406 420l28 -29l-378 -391l378 -391l-28 -27z" />
<glyph unicode="=" horiz-adv-x="942" d="M61 205v39h820v-39h-820zM61 586v41h820v-41h-820z" />
<glyph unicode="&#x3e;" horiz-adv-x="544" d="M55 25l379 391l-379 391l29 29l405 -420l-405 -418z" />
<glyph unicode="?" horiz-adv-x="954" d="M61 1026q0 92 29 169t82 132t129 87t172 32t173 -30t131 -85t84 -134t30 -175q0 -84 -30 -161t-83 -137t-124.5 -98t-155.5 -44v-174h-41v235q86 0 141 51t55 129v402q0 80 -51 129t-129 49q-143 0 -233 -73t-123 -206q29 18 61.5 18.5t59 -14t44 -42t17.5 -62.5 q0 -51 -35 -86t-84 -35q-51 0 -85 36t-34 87zM358 121q0 51 35 86t84 35t84 -35t35 -86q0 -49 -35 -85t-84 -36t-84 36t-35 85z" />
<glyph unicode="@" horiz-adv-x="1302" d="M31 416q0 129 49 241.5t133 196.5t196.5 133t241.5 49t242 -49t197 -133t133 -196.5t49 -241.5q0 -117 -42 -223.5t-124 -194.5h-277v39q-41 -20 -86 -29.5t-92 -9.5q-86 0 -162.5 32.5t-134 89t-90.5 133.5t-33 163t33 162.5t90.5 134t134 90.5t162.5 33q92 0 178 -41 v69l242 -241v-586h16q70 78 106 176t36 203q0 119 -45 224t-124 184t-184.5 124t-224.5 45q-121 0 -226.5 -45t-183 -124t-123.5 -184t-46 -224q0 -121 46 -225.5t123.5 -183.5t183 -124t226.5 -45h400q29 0 59 6.5t59 20.5q-31 6 -52 29.5t-21 56.5q0 37 26.5 61.5 t61.5 24.5q37 0 62.5 -24.5t25.5 -61.5q0 -43 -23.5 -73t-57.5 -47t-72 -25.5t-68 -8.5h-400q-129 0 -241.5 48.5t-196.5 132t-133 196.5t-49 242zM471 215q0 -74 52 -126t128 -52q74 0 126 51t52 125v403q0 74 -52 126.5t-126 52.5t-127 -52.5t-53 -128.5v-399z" />
<glyph unicode="A" horiz-adv-x="1761" d="M61 0v41h203q152 352 304.5 704.5t312.5 731.5l616 -1436h203v-41h-633v41h184l-241 561h-461l-240 -561h185v-41h-433zM567 643h426l-213 496z" />
<glyph unicode="B" horiz-adv-x="1357" d="M61 0v41h195v1362h-195v43h715q70 0 128.5 -25.5t101.5 -68.5t66.5 -101.5t23.5 -126.5q0 -92 -47.5 -167.5t-124.5 -116.5q74 -10 141.5 -48t118.5 -95.5t81.5 -128t30.5 -146.5q0 -88 -32.5 -165t-90 -134t-134.5 -90t-165 -33h-813zM496 41h378q180 0 181 180v406 q0 80 -50.5 128t-127.5 48h-381v-762zM496 844h280q53 0 91 38t38 91v301q0 59 -34.5 94t-94.5 35h-280v-559z" />
<glyph unicode="C" horiz-adv-x="1159" d="M61 723q0 131 43 260t123 231.5t194 167t257 64.5q92 0 169 -32t133 -87t87 -133t31 -170q0 -49 -37 -85t-84 -36q-49 0 -85 35t-36 86q0 37 17.5 63.5t45 42t60.5 14.5t61 -20q-33 135 -125 207t-237 72q-80 0 -148.5 -30t-119 -80t-80 -119.5t-29.5 -149.5v-602 q0 -78 29.5 -147.5t81 -122t120 -82t146.5 -29.5q90 0 160.5 29.5t119 83t74 126t25.5 156.5h41q0 -92 -29 -172t-83 -138t-132 -92t-176 -34q-141 0 -256 63.5t-195 167t-123 232.5t-43 260z" />
<glyph unicode="D" horiz-adv-x="1357" d="M61 0v41h195v1362h-195v43h615q143 0 258 -64.5t195.5 -167t123.5 -231.5t43 -260t-43 -260t-122.5 -232.5t-195.5 -167t-259 -63.5h-615zM498 41h178q80 0 148.5 29.5t120.5 81t82 121t30 149.5q0 152 -1 301t-1 301q0 86 -28 155.5t-77 119t-118.5 77t-153.5 27.5h-180 v-1362z" />
<glyph unicode="E" horiz-adv-x="1153" d="M61 0v41h193v1362h-193v43h811q96 0 158 -64.5t62 -173.5h-41q-8 88 -52.5 141.5t-121.5 53.5h-383v-660h393v-41h-393v-661h378q96 0 144 68q-29 -12 -58.5 -8.5t-53 20t-38 42t-14.5 58.5q0 51 35 86t84 35q51 0 86 -35t35 -86q0 -98 -62 -159.5t-158 -61.5h-811z" />
<glyph unicode="F" horiz-adv-x="1153" d="M61 0v41h193v1362h-193v43h811q96 0 158 -62.5t62 -158.5q0 -49 -37 -85t-84 -36q-49 0 -84 35t-35 86q0 31 14.5 57.5t38 41.5t53 19.5t58.5 -8.5q-47 68 -146 68h-376v-660h393v-41h-393v-661h194v-41h-627z" />
<glyph unicode="G" horiz-adv-x="1363" d="M61 723q0 131 43 260t124 231.5t196 167t258 64.5q92 0 170 -32t133 -89t86 -134t31 -167q0 -51 -35 -86t-86 -35q-49 0 -85 35t-36 86q0 37 17.5 63.5t45 42t60.5 14.5t64 -20q-33 133 -126.5 206t-238.5 73q-82 0 -151.5 -28.5t-120 -80t-79 -120t-28.5 -150.5v-602 q0 -80 29.5 -148.5t81 -121t120 -82t148.5 -29.5q78 0 147.5 29.5t120.5 82t81 121t30 148.5v280h-395v41h637q0 -137 -43 -270t-123 -238.5t-195 -170t-260 -64.5t-260 63.5t-195 167t-123 232.5t-43 260z" />
<glyph unicode="H" horiz-adv-x="1556" d="M61 0v41h195v1362h-195v43h631v-43h-194v-660h561v660h-195v43h631v-43h-195v-1362h195v-41h-631v41h195v661h-561v-661h194v-41h-631z" />
<glyph unicode="I" horiz-adv-x="737" d="M61 0v41h191v1362h-191v43h615v-43h-191v-1362h191v-41h-615z" />
<glyph unicode="J" horiz-adv-x="1153" d="M61 322q0 49 35 84.5t86 35.5q49 0 84 -35.5t35 -84.5q0 -35 -17.5 -63t-43 -42t-57 -15t-60.5 15q29 -86 91 -131t159 -45q59 0 111.5 21.5t90 58.5t60 88t22.5 113v1081h-192v43h627v-43h-195v-881q0 -113 -39 -208t-108.5 -164.5t-163.5 -109.5t-205 -40 q-70 0 -128 23.5t-101 66.5t-67 101.5t-24 130.5z" />
<glyph unicode="K" horiz-adv-x="1556" d="M61 0v41h195v1362h-195v43h631v-43h-194v-893l362 723q16 33 43 70.5t61.5 69.5t74.5 52.5t83 20.5q49 0 84 -19.5t55.5 -51.5t29.5 -71.5t9 -78.5q0 -49 -35.5 -85t-84.5 -36q-51 0 -86 35t-35 86q0 35 17.5 62.5t43.5 41.5q26 13 58 15q2 0 5 1q29 0 56 -18 q-33 76 -117 76q-33 0 -66.5 -18.5t-63 -46t-55.5 -60.5t-40 -64l-195 -389l588 -784h205v-41h-631v41h174l-436 582l-104 -205v-377h194v-41h-631z" />
<glyph unicode="L" horiz-adv-x="1153" d="M61 0v41h193v1362h-193v43h433v-1405h378q96 0 144 68q-29 -12 -58.5 -8.5t-53 20t-38 42t-14.5 58.5q0 51 35 86t84 35t85 -35t36 -86q0 -98 -62 -159.5t-158 -61.5h-811z" />
<glyph unicode="M" horiz-adv-x="1966" d="M61 0v41h197v1362h-197v43h433l452 -1053l529 1053h430v-43h-197v-1362h197v-41h-635v41h196v1296q-160 -317 -316.5 -628.5t-315.5 -628.5l-535 1243v-1282h195v-41h-433z" />
<glyph unicode="N" horiz-adv-x="1556" d="M61 0v41h195v1362h-195v43h428l771 -1348v1305h-195v43h430v-43h-195v-1362h195v-41h-631v41h180l-747 1307v-1307h195v-41h-431z" />
<glyph unicode="O" horiz-adv-x="1363" d="M61 723q0 131 43 260t124 231.5t196 167t258 64.5t258 -64.5t196 -167t124 -231.5t43 -260t-43 -260t-124 -232.5t-196 -167t-258 -63.5t-258 63.5t-196 167t-124 232.5t-43 260zM303 422q0 -80 29.5 -148.5t81 -121t120 -82t148.5 -29.5q78 0 147.5 29.5t120.5 82 t81 121t30 148.5v602q0 78 -30 147.5t-81 120.5t-120.5 81t-147.5 30t-147.5 -30t-121 -81t-81 -120.5t-29.5 -147.5v-602z" />
<glyph unicode="P" horiz-adv-x="1357" d="M61 0v41h195v1362h-195v43h816q88 0 163.5 -33t133 -90t90 -134t32.5 -165t-33.5 -165t-90 -134t-133 -90t-162.5 -33h-379v-561h192v-41h-629zM498 643h376q82 0 131.5 48t49.5 132v402q0 74 -52 126t-126 52h-379v-760z" />
<glyph unicode="Q" horiz-adv-x="1363" d="M61 719q0 131 43 261t124 233.5t196 168t258 64.5t258 -64.5t196 -168t124 -233.5t43 -261q0 -217 -88.5 -374.5t-262.5 -278.5q-66 -45 -107.5 -108.5t-41.5 -143.5t49 -130.5t129 -50.5q96 0 145 70q-29 -12 -58.5 -8t-53 19.5t-38.5 42t-15 59.5q0 49 35.5 85t84.5 36 q51 0 86 -36t35 -87q0 -98 -61.5 -160t-159.5 -62q-106 0 -163.5 64.5t-57.5 169.5q0 59 21.5 105t56.5 85q-74 -20 -156 -20q-143 0 -258 63.5t-196 167t-124 232.5t-43 260zM303 418q0 -80 29.5 -149.5t81 -122t120 -82t148.5 -29.5q78 0 147.5 29.5t120.5 82t81 122 t30 149.5v604q0 80 -30 148.5t-81 120.5t-120.5 82t-147.5 30t-147.5 -30t-121 -82t-81 -120.5t-29.5 -148.5v-604z" />
<glyph unicode="R" horiz-adv-x="1767" d="M61 0v41h195v1362h-195v41q219 0 436.5 1t436.5 1q76 0 143.5 -30t118.5 -81t80 -118.5t29 -143.5q0 -115 -63.5 -208t-168.5 -134q121 -33 195.5 -129t79.5 -225q1 -34 1 -68v-35q-1 -52 -1 -104q0 -53 41 -91t96 -38q43 0 82 17.5t63 50.5q-29 -12 -58.5 -8.5t-54 19 t-40 42t-15.5 59.5q0 49 36 85t87 36q47 0 84 -37t37 -84q0 -98 -62.5 -159.5t-158.5 -61.5q-78 0 -146.5 28.5t-120 80t-82 118t-30.5 144.5v200q0 53 -38 92t-91 39h-477v-661h194v-41h-633zM500 743h432q49 0 89 40t40 89v402q0 55 -37 92t-92 37h-432v-660z" />
<glyph unicode="S" horiz-adv-x="1159" d="M61 522q0 49 35 85t86 36q49 0 84 -36t35 -85q0 -37 -18.5 -64.5t-46 -42t-60.5 -14.5t-61 21q35 -180 153.5 -280.5t311.5 -100.5q57 0 107 22.5t88 60.5t59.5 89t21.5 109v401q0 129 -75.5 203.5t-200.5 77.5q-98 0 -159 60t-61 161q0 98 60.5 159.5t159.5 61.5 q100 0 159.5 -58.5t59.5 -162.5q0 -51 -35 -86t-86 -35q-49 0 -84 35t-35 86q0 33 14.5 58.5t38 40.5t53 19.5t58.5 -8.5q-25 33 -63.5 51.5t-79.5 18.5q-78 0 -128.5 -50t-50.5 -130t50.5 -130.5t128.5 -50.5q106 0 200 -40.5t165 -111.5t112 -166t41 -204t-41 -204 t-112 -165.5t-165 -111.5t-200 -41q-119 0 -215.5 38t-164 107.5t-103.5 166t-36 210.5z" />
<glyph unicode="T" horiz-adv-x="1562" d="M61 1223q0 98 61.5 160.5t160.5 62.5h1218v-43h-596v-1362h195v-41h-631v41h195v1362h-385h-10q-85 0 -132 -68q29 12 58.5 8t53 -19t39 -42t15.5 -59q0 -49 -36 -84t-85 -35q-51 0 -86 33.5t-35 85.5z" />
<glyph unicode="U" horiz-adv-x="1761" d="M61 1403v43h633v-43h-194v-981q0 -80 29.5 -148.5t82 -121t121 -82t148.5 -29.5t148.5 29.5t120.5 82t82 121t30 148.5v981h-195v43h633v-43h-195q0 -154 -1 -333t-1 -353q0 -131 -43 -260t-123 -230.5t-195.5 -164t-260.5 -62.5q-147 0 -264 63.5t-197 166t-122 231.5 t-42 262v680h-195z" />
<glyph unicode="V" horiz-adv-x="1761" d="M61 1403v43h633v-43h-184l471 -1096l471 1096h-184v43h432v-43h-203l-616 -1434l-617 1434h-203z" />
<glyph unicode="W" horiz-adv-x="2580" d="M61 1403v43h637v-43h-186l475 -1096l281 649l-193 447h-205v43h840v-43h-205l-92 -213l383 -883l473 1096h-184v43h434v-43h-203l-620 -1434l-406 934l-405 -934l-621 1434h-203zM1321 1403l70 -160l69 160h-139z" />
<glyph unicode="X" horiz-adv-x="1351" d="M61 0v41h195q2 102 25.5 188t65.5 160t100.5 141.5t132.5 133.5l-318 739h-201v43h629v-43h-182l248 -582q68 63 122 127t93 133.5t60.5 148.5t23.5 173h-195v43h430v-43h-194q-2 -102 -25.5 -187.5t-65.5 -160t-101.5 -142t-131.5 -133.5l318 -739h200v-41h-628v41h182 l-248 582q-68 -61 -123 -125t-93 -133.5t-59.5 -149.5t-23.5 -174h195v-41h-431z" />
<glyph unicode="Y" horiz-adv-x="1351" d="M61 1403v43h629v-43h-180l266 -535l266 535h-182v43h430v-43h-203l-290 -586v-776h194v-41h-631v41h195v776l-291 586h-203z" />
<glyph unicode="Z" horiz-adv-x="1167" d="M51 0l795 1403l-561 2q-98 0 -144 -70q29 12 58.5 8t53 -19t38 -42t14.5 -57q0 -51 -34.5 -86t-84.5 -35q-51 0 -85.5 35t-34.5 86q0 96 60 158.5t159 62.5l831 -2l-797 -1403h564q94 0 143 68q-29 -12 -58.5 -8.5t-53 20t-38 42t-14.5 58.5q0 49 35 85t84 36t85 -35 t36 -86q0 -100 -60.5 -160.5t-158.5 -60.5h-832z" />
<glyph unicode="[" horiz-adv-x="538" d="M61 0v1446h416v-43h-186v-1362h186v-41h-416z" />
<glyph unicode="\" horiz-adv-x="747" d="M57 1430l37 16l596 -1432l-37 -14z" />
<glyph unicode="]" horiz-adv-x="538" d="M61 0v41h187v1362h-187v43h416v-1446h-416z" />
<glyph unicode="^" horiz-adv-x="540" d="M55 1251l215 201l215 -201l-28 -26l-187 176q-80 -74 -116.5 -109t-51 -48t-14.5 -14t-4 -5l-13 13t-16 13z" />
<glyph unicode="_" horiz-adv-x="942" d="M61 -190h820v-13h-820v13z" />
<glyph unicode="`" d="M61 1331q0 47 32 81t77 34t77 -33t32 -80q0 -29 -13.5 -53.5t-34 -39.5t-47 -19t-53.5 8q39 -63 141 -64v-39q-96 0 -153.5 57.5t-57.5 147.5z" />
<glyph unicode="a" horiz-adv-x="1091" d="M31 416q0 86 32.5 161.5t89 132t133 89t163.5 32.5q92 0 178 -40v40h239v-790h195v-41h-434v41q-86 -41 -178 -41q-86 0 -163 33t-133.5 89t-89 132t-32.5 162zM270 217q0 -86 46 -132t133 -46q74 0 126 52t52 126v397q0 37 -14.5 69t-38 55.5t-56.5 38t-69 14.5 q-74 0 -126.5 -52.5t-52.5 -126.5v-395z" />
<glyph unicode="b" horiz-adv-x="1091" d="M31 0v41h192v1362h-192v43h432v-602q51 0 101 -1t102 -1q84 0 155.5 -34t124.5 -91.5t84 -133t31 -161.5q0 -88 -33 -165t-89 -134t-133 -90t-163 -33h-612zM463 41h180q74 0 126 53t52 127v402q0 86 -47 133t-131 47h-180v-762z" />
<glyph unicode="c" horiz-adv-x="688" d="M31 416q0 203 109.5 309t305.5 106q31 0 68 -7t68.5 -25.5t53 -48t21.5 -72.5q0 -35 -25.5 -60.5t-60.5 -25.5t-60.5 25.5t-25.5 60.5q0 33 21.5 57.5t52.5 28.5q-27 14 -56.5 20.5t-56.5 6.5q-74 0 -127 -51.5t-53 -127.5v-395q0 -37 13.5 -68.5t37 -55t55 -38 t68.5 -14.5q29 0 60.5 6.5t58.5 20.5q-31 4 -52.5 27.5t-21.5 56.5q0 35 26 60.5t60 25.5q35 0 60.5 -26t25.5 -60q0 -49 -21.5 -79t-54 -46.5t-70.5 -21.5t-71 -5q-84 0 -158.5 33t-130 89t-88 132t-32.5 162z" />
<glyph unicode="d" horiz-adv-x="1091" d="M31 422q0 90 31.5 167t88 134t132 89t166.5 32h178v559h-193v43l432 -2v-1403h195v-41h-612q-86 0 -163 33t-133.5 90t-89 134t-32.5 165zM270 221q0 -76 52.5 -128t128.5 -52h176v762h-178q-35 0 -67 -15.5t-56.5 -41t-40 -58.5t-15.5 -65v-402z" />
<glyph unicode="e" horiz-adv-x="892" d="M31 416q0 86 32.5 160.5t90 132t132 90t160.5 32.5q92 0 168 -35.5t131.5 -95t86 -138.5t30.5 -167h-594v-178q0 -37 14.5 -68.5t38 -55t56.5 -38t69 -14.5q29 0 59.5 6.5t57.5 20.5q-31 4 -51 27.5t-20 56.5q0 35 25.5 60.5t60.5 25.5t60.5 -26t25.5 -60q0 -43 -23 -73 t-55.5 -47.5t-70.5 -24.5t-69 -7q-90 0 -165.5 31.5t-131 87t-87 131.5t-31.5 166zM268 436h355v176q0 78 -49.5 128.5t-127.5 50.5t-127 -50.5t-51 -128.5q3 -28 3 -66v-19q-1 -50 -3 -91z" />
<glyph unicode="f" horiz-adv-x="886" d="M31 0v41h192v762h-192v41h192v184q0 199 107.5 308.5t306.5 109.5q98 0 158.5 -62.5t60.5 -158.5q0 -51 -35 -86t-84 -35t-84 35t-35 86q0 31 14.5 57.5t37 41.5t52.5 19.5t58 -8.5q-47 68 -143 68q-86 0 -131 -46t-45 -132v-381h389v-41h-389v-762h192v-41h-622z" />
<glyph unicode="g" horiz-adv-x="1089" d="M31 408q0 86 32.5 162.5t89 134t133 91t163.5 33.5h610v-43h-195v-983q0 -90 -30.5 -165.5t-86 -131t-132 -86t-166.5 -30.5q-98 0 -159 61.5t-61 157.5q0 51 35 86t84 35t85 -35t36 -86q0 -31 -14.5 -56.5t-38 -42t-52 -20.5t-57.5 6q48 -67 134 -67h3q78 0 130.5 51 t52.5 129v381h-178q-88 0 -164 31.5t-132.5 88t-89 133t-32.5 165.5zM270 209q0 -59 17.5 -95t45 -55.5t59.5 -25.5t61 -6h35.5t51 1t51 1h36.5v757h-178q-74 0 -126.5 -52t-52.5 -126v-399z" />
<glyph unicode="h" horiz-adv-x="1290" d="M31 0v41h194v1362h-194v43h434v-776q37 33 82 63.5t94 55t101.5 40t101.5 15.5q98 0 159.5 -61.5t61.5 -159.5v-582h195v-41h-629v41h194v760q-47 -4 -96 -21.5t-96 -43t-90 -57.5t-78 -65v-614h-434z" />
<glyph unicode="i" horiz-adv-x="675" d="M31 0v41h190v758h-190v41h424v-799h190v-41h-614zM221 1120q0 49 34 85t83 36t83 -36t34 -85q0 -51 -34 -86t-83 -35t-83 35t-34 86z" />
<glyph unicode="j" horiz-adv-x="583" d="M-172 -387q0 49 35 85t82 36t81.5 -36t34.5 -85q0 -31 -13 -57.5t-35.5 -42t-51.5 -20.5t-57 7q46 -69 131 -69h2q76 0 127 52t51 130v1184h-188v41h424v-1031q0 -90 -30 -165.5t-83 -131t-129 -87t-168 -31.5t-152.5 61.5t-60.5 159.5zM215 1118q0 49 35 85t84 36 q47 0 82 -36t35 -85q0 -51 -35 -86t-82 -35q-49 0 -84 35t-35 86z" />
<glyph unicode="k" horiz-adv-x="1085" d="M31 0v41h192v1362h-192v43h432v-690q59 88 180 88q96 0 157.5 -62.5t61.5 -158.5q0 -51 -35.5 -86t-85.5 -35q-49 0 -83.5 34.5t-34.5 86.5q0 33 14 58.5t37.5 41.5t53.5 20.5t58 -8.5q-49 68 -143 68q-80 0 -130 -51.5t-50 -128.5q0 -51 16.5 -91t42 -74t60 -62.5 t71.5 -55.5q37 -29 73 -58.5t64.5 -65.5t47 -78t22.5 -97h195v-41h-428v41h192q-4 84 -52 139.5t-112 104.5q-53 41 -105 83t-87 101v-469h-432z" />
<glyph unicode="l" horiz-adv-x="675" d="M31 0v41h190v1362h-190v43h424v-1405h190v-41h-614z" />
<glyph unicode="m" horiz-adv-x="1904" d="M31 0v41h196v750h-196v40h438v-172q80 68 179.5 120t209.5 52q80 0 138.5 -51t72.5 -125q82 72 179.5 124t211.5 52q104 0 160.5 -60t56.5 -159v-571h197v-41h-635v41h197v747q-47 -4 -97.5 -20t-97.5 -42t-90 -57.5t-78 -64.5v-604h-438v41h196v747q-47 -4 -97 -20 t-97 -42t-90 -57.5t-78 -64.5v-604h-438z" />
<glyph unicode="n" horiz-adv-x="1290" d="M31 0v41h194v750h-194v40h434v-172q37 31 83 62t95 55.5t100.5 39.5t102.5 15q96 0 157.5 -61t61.5 -158v-571h195v-41h-629v41h194v747q-47 -4 -96 -20t-96 -42t-90 -57.5t-78 -64.5v-604h-434z" />
<glyph unicode="o" horiz-adv-x="892" d="M31 416q0 86 32.5 161.5t89 132t132 89t161.5 32.5t162 -32.5t132.5 -89t89 -132t32.5 -161.5t-32.5 -161t-90 -132t-132.5 -90t-161 -33q-84 0 -159.5 34t-132 90t-90 132t-33.5 160zM268 217q0 -37 14.5 -68.5t38 -55t56.5 -38t69 -14.5q37 0 69 14.5t56.5 38t38 55 t13.5 68.5v395q0 37 -14.5 70t-38 56.5t-55.5 38t-69 14.5q-74 0 -126 -52.5t-52 -126.5v-395z" />
<glyph unicode="p" horiz-adv-x="1089" d="M31 -569h192v1355h-192v43h610q90 0 167 -28.5t132 -82.5t86 -130t31 -168q0 -90 -31 -169t-85 -137.5t-131 -91t-169 -32.5h-178v-600h-432v41zM463 29h178q82 0 130 48t48 130v401q0 74 -52 126t-126 52h-178v-757z" />
<glyph unicode="q" horiz-adv-x="1089" d="M31 408q0 88 32.5 164.5t89 134t133 90t163.5 32.5h610v-41h-195v-1398h-432v41h195v559h-181q-193 0 -304 109.5t-111 308.5zM270 227q0 -66 14.5 -104.5t39 -60t56.5 -28.5t69 -7h35.5t53 1t53 1h36.5v759q-45 0 -89 -1t-89 -1q-74 0 -126.5 -52t-52.5 -126v-381z" />
<glyph unicode="r" horiz-adv-x="886" d="M31 0v41h192v750h-192v40h147h56.5t11.5 0t11 0h57h147v-88q59 88 176 88q98 0 158.5 -61t60.5 -158q0 -49 -35 -83.5t-84 -34.5t-84 34.5t-35 83.5q0 33 14.5 58.5t38 41t52.5 19.5t57 -8q-47 68 -143 68q-78 0 -127 -50.5t-49 -128.5v-571h188v-41h-618z" />
<glyph unicode="s" horiz-adv-x="688" d="M31 317q0 49 34.5 84t81.5 35q49 0 84 -34.5t35 -84.5q0 -35 -16.5 -61.5t-42 -41.5t-57 -16t-60.5 15q29 -84 93.5 -128t160.5 -44q33 0 55.5 22.5t22.5 55.5v395q0 35 -22.5 56.5t-55.5 21.5q-53 0 -86 33.5t-33 87.5q0 51 33 84.5t86 33.5q49 0 83 -34.5t34 -85.5 q0 -29 -19.5 -48.5t-48.5 -19.5t-49 19.5t-20 48.5t17 47t44 22q-20 10 -41 11q-35 0 -56.5 -21.5t-21.5 -56.5q0 -74 78 -80q139 -10 226 -86t87 -230q0 -70 -24.5 -128t-67.5 -99t-101 -64.5t-126 -23.5t-125 23.5t-97 65.5t-62.5 99.5t-22.5 126.5z" />
<glyph unicode="t" horiz-adv-x="880" d="M31 0v41h192v762h-192v41h192v559h-192v43h430v-602h389v-41h-389v-762h192v-41h-622z" />
<glyph unicode="u" horiz-adv-x="1085" d="M31 791v38h432v-720q0 -37 21.5 -52.5t58.5 -15.5q121 0 199.5 65.5t78.5 194.5v490h-194v38h428v-38h-193v-508q0 -68 -26.5 -120t-70.5 -89t-102.5 -55.5t-119.5 -18.5q-59 0 -116.5 20.5t-102.5 57.5t-73 89t-28 116v508h-192z" />
<glyph unicode="v" horiz-adv-x="1290" d="M31 791v40h628v-40h-180l266 -529l267 529h-183v40h431v-40h-203q-100 -199 -200.5 -397.5t-211.5 -416.5l-412 814h-202z" />
<glyph unicode="w" horiz-adv-x="1904" d="M31 791v40h1239v-40h-183l269 -529l268 529h-182v40h432v-40h-205l-414 -814l-303 590l-303 -590l-413 814h-205zM481 791l271 -529l178 350l-90 179h-359z" />
<glyph unicode="x" horiz-adv-x="1085" d="M31 0v41h194q6 113 68.5 190.5t148.5 139.5l-211 420h-200v40h426l168 -335q80 59 135 126.5t59 168.5h-192v40h428v-40h-195q-6 -115 -68.5 -193t-148.5 -139l211 -418h201v-41h-426l-168 334q-80 -57 -135.5 -126t-59.5 -167h193v-41h-428z" />
<glyph unicode="y" horiz-adv-x="1292" d="M31 -389q0 51 34.5 86t86.5 35q49 0 83.5 -35t34.5 -86q0 -35 -17 -61.5t-43 -42t-58 -16.5h-3q-30 0 -59 17q33 -75 117 -75h2q33 0 66.5 18.5t63.5 46t53.5 60t39.5 63.5l195 389l-389 781h-201v40h627v-40h-181l267 -535l264 535h-180v40h428v-40h-201l-592 -1188 q-16 -33 -43 -70t-61.5 -68.5t-74.5 -52t-81 -20.5q-49 0 -84 19.5t-55.5 50t-29.5 69.5t-9 80z" />
<glyph unicode="z" horiz-adv-x="796" d="M74 0l389 791h-162q-29 0 -59.5 -6.5t-57.5 -20.5q31 -4 51.5 -28.5t20.5 -57.5q0 -35 -25.5 -60.5t-60.5 -25.5t-59.5 25.5t-24.5 60.5q0 45 21.5 75.5t54.5 46.5t70.5 23.5t68.5 7.5h422l-389 -790h160q29 0 59.5 5t58.5 22q-31 4 -51 27.5t-20 56.5q0 35 25.5 60.5 t60.5 25.5q39 0 61.5 -24t22.5 -62q0 -43 -21.5 -72t-54.5 -47.5t-70 -25.5t-67 -7h-424z" />
<glyph unicode="{" horiz-adv-x="634" d="M61 702v41q63 0 101.5 38t38.5 91v207q0 82 26.5 149.5t75.5 116t117.5 75t152.5 26.5v-41q-63 -2 -101 -40t-38 -91v-225q-4 -123 -69.5 -207t-169.5 -119q106 -39 170.5 -132t68.5 -214q2 -51 1 -102.5t-1 -102.5q0 -53 38 -92t101 -39v-41q-84 0 -152.5 26.5 t-117.5 75t-75.5 116t-26.5 149.5v204q0 55 -38 93t-102 38z" />
<glyph unicode="|" horiz-adv-x="421" d="M205 0v1434h12v-1434h-12z" />
<glyph unicode="}" horiz-adv-x="634" d="M61 0v41q63 0 101.5 39t38.5 92v205q0 129 63.5 219t173.5 127q-111 37 -174 126t-63 218v207q0 53 -38 91t-102 40v41q86 0 155 -26.5t117 -76t74.5 -118t26.5 -150.5v-203q0 -53 38 -91t101 -38v-43q-31 2 -56 -8t-43.5 -28.5t-29 -43t-10.5 -49.5v-200 q0 -84 -26.5 -151.5t-74.5 -117t-117 -76t-155 -26.5z" />
<glyph unicode="~" horiz-adv-x="952" d="M55 518q92 109 224 109q82 0 129 -31t81 -64q45 -41 82 -63.5t103 -22.5q55 0 101 23t87 70l35 -21q-43 -55 -102.5 -81.5t-120.5 -26.5q-41 0 -73 8t-56.5 21.5t-44 30.5t-37.5 34q-45 41 -83 63.5t-101 22.5q-51 0 -102.5 -23.5t-86.5 -70.5z" />
<glyph unicode="&#xa1;" d="M61 711q0 49 32 84.5t77 35.5t77 -35.5t32 -84.5q0 -51 -32 -86t-77 -35t-77 34.5t-32 86.5zM152 424h36v-1030h-36v1030z" />
<glyph unicode="&#xa2;" horiz-adv-x="688" d="M27 20l96 132q-92 117 -92 264q0 82 32.5 157.5t89 133t131 91t156.5 33.5q37 0 79 -10t77 -33l33 48l33 -27l-35 -47q31 -37 30 -82q0 -29 -14 -49.5t-35.5 -30.5t-46 -7t-45.5 21l-250 -338v-59q0 -76 52.5 -126t127.5 -50q29 0 58.5 6.5t54.5 18.5q-31 4 -52.5 28.5 t-21.5 57.5q0 35 26 60.5t60 25.5q35 0 59.5 -26t24.5 -60q0 -43 -21.5 -72t-53 -46.5t-67.5 -25.5t-67 -8q-86 0 -160.5 30.5t-133.5 92.5l-95 -125zM266 344l226 305q-14 37 6 73t61 42q-27 14 -58.5 20.5t-60.5 6.5q-76 0 -125 -49.5t-49 -127.5v-270z" />
<glyph unicode="&#xa3;" horiz-adv-x="1159" d="M61 221q0 90 55.5 151.5t143.5 67.5v363h-192v41h192v190q4 92 36 167t85 129t129 84t168 30q98 0 158.5 -61.5t60.5 -157.5q0 -53 -34 -87t-85 -34q-49 0 -85 35t-36 86q0 31 15.5 57.5t39 41.5t52.5 19.5t57 -8.5q-47 68 -143 68q-78 0 -128 -50t-50 -128v-381h393v-41 h-393v-481q0 -129 74.5 -205t203.5 -76q199 0 258 176q-29 -16 -60.5 -15t-58 15t-44 42t-17.5 63q0 49 36 84.5t85 35.5q47 0 85 -31.5t36 -82.5v-6q-6 -141 -89 -231.5t-231 -90.5q-102 0 -175 44t-109 130q-16 -78 -68.5 -126t-144.5 -48h-213v41h192v358 q-106 -8 -145 -108q35 8 61.5 -13.5t26.5 -56.5q0 -29 -21.5 -50t-50.5 -21t-49.5 20t-20.5 51z" />
<glyph unicode="&#xa6;" horiz-adv-x="421" d="M205 0v1434h12v-1434h-12z" />
<glyph unicode="&#xa7;" horiz-adv-x="952" d="M61 414q0 66 3.5 168t15.5 215.5t37.5 228.5t72 208t116 150.5t169.5 57.5q98 0 157.5 -62.5t59.5 -158.5q0 -51 -34.5 -87t-84.5 -36q-47 0 -82.5 35.5t-35.5 87.5q0 31 14 57.5t37.5 41.5t53.5 20.5t58 -7.5q-47 68 -143 68q-76 0 -131 -39t-95 -102.5t-65.5 -146.5 t-42 -171t-24.5 -176t-11 -162q53 106 151.5 170t217.5 64q90 0 167 -32t132 -89.5t86 -135t31 -169.5q0 -61 -2 -160.5t-14.5 -213.5t-38 -229.5t-71.5 -209t-117 -151.5t-173 -58q-96 0 -156.5 61.5t-60.5 159.5q0 53 34 87t85 34q49 0 84 -35t35 -86q0 -31 -14.5 -57.5 t-38 -42t-52.5 -20.5t-57 7q45 -68 141 -67q74 0 130.5 38.5t96 102t66.5 146.5t43 171t23.5 175.5t11.5 160.5q-53 -104 -152.5 -167.5t-218.5 -63.5q-86 0 -160.5 32.5t-131 90t-89.5 134.5t-33 163zM299 213q0 -82 49 -131t127 -49t128 51t50 129v403q0 74 -52 127.5 t-126 53.5q-37 0 -68.5 -14.5t-55 -39t-38 -57.5t-14.5 -70v-403z" />
<glyph unicode="&#xa8;" horiz-adv-x="542" d="M61 1776q0 31 25 52t59 21q35 0 58.5 -21.5t23.5 -51.5q0 -29 -23.5 -51.5t-58.5 -22.5t-59.5 22.5t-24.5 51.5zM315 1776q0 33 23.5 53t60.5 20q35 0 58.5 -21.5t23.5 -51.5q0 -29 -23.5 -51.5t-58.5 -22.5t-59.5 22.5t-24.5 51.5z" />
<glyph unicode="&#xa9;" horiz-adv-x="1363" d="M61 621q0 129 49.5 241.5t133.5 196.5t196.5 133t241.5 49t241.5 -49t196.5 -133t133.5 -196.5t49.5 -241.5t-49.5 -242t-133.5 -197t-196.5 -133t-241.5 -49t-241.5 49t-196.5 133t-133.5 197t-49.5 242zM102 621q0 -121 46.5 -226.5t124 -183.5t183 -124t226.5 -46 q119 0 224.5 46t184 124t124 183.5t45.5 226.5q0 119 -45.5 225t-124 184t-184 124t-224.5 46q-121 0 -226.5 -46t-183 -124t-124 -184.5t-46.5 -224.5zM305 621q0 86 34 162.5t90 133t133 90t163 33.5q31 0 68.5 -7t71.5 -25.5t57.5 -48t23.5 -72.5q0 -35 -25.5 -61.5 t-60.5 -26.5q-37 0 -62.5 26.5t-25.5 61.5q0 33 21.5 57.5t52.5 28.5q-29 14 -60.5 20t-60.5 6q-178 0 -178 -180v-399q0 -78 53 -128t131 -50q27 0 57.5 6t57.5 20q-31 4 -52.5 29t-21.5 57q0 35 25.5 60.5t62.5 25.5q39 0 63.5 -26.5t24.5 -63.5q0 -43 -22.5 -71.5 t-56 -46t-71.5 -24.5t-67 -7q-86 0 -164 32.5t-136 90t-92 134.5t-34 163z" />
<glyph unicode="&#xaa;" horiz-adv-x="641" d="M61 1235q0 43 16.5 82t46.5 67.5t68.5 45t81.5 16.5q20 0 40 -4t38 -10v14h135v-383h93v-39h-228v14q-18 -6 -37.5 -10t-40.5 -4q-43 0 -81.5 16.5t-68.5 45t-46.5 67.5t-16.5 82zM199 1141q0 -35 20.5 -56.5t54.5 -21.5q29 0 53.5 23.5t24.5 52.5v192q0 31 -22.5 52.5 t-55.5 21.5t-54 -21.5t-21 -54.5v-188z" />
<glyph unicode="&#xab;" horiz-adv-x="544" d="M55 416q92 90 135 133t60 61l16 17l4 4l29 -29l-188 -186l188 -189l-29 -26zM246 416q92 90 135 133t59 61l17 17l4 4l28 -29l-188 -186l188 -189l-28 -26z" />
<glyph unicode="&#xac;" horiz-adv-x="948" d="M61 385v37h826v-217h-238v180h-588z" />
<glyph unicode="&#xad;" horiz-adv-x="942" d="M61 410v12h820v-12h-820z" />
<glyph unicode="&#xae;" horiz-adv-x="1363" d="M61 621q0 129 49.5 241.5t133.5 196.5t196.5 133t241.5 49t241.5 -49t196.5 -133t133.5 -196.5t49.5 -241.5t-49.5 -242t-133.5 -197t-196.5 -133t-241.5 -49t-241.5 49t-196.5 133t-133.5 197t-49.5 242zM102 621q0 -121 46.5 -226.5t124 -183.5t183 -124t226.5 -46 q119 0 224.5 46t184 124t124 183.5t45.5 226.5q0 119 -45.5 225t-124 184t-184 124t-224.5 46q-121 0 -226.5 -46t-183 -124t-124 -184.5t-46.5 -224.5zM358 299v43h80v557h-80v41h381q72 0 120 -49t48 -121q0 -45 -21.5 -84t-58.5 -61q47 -20 74 -61.5t27 -92.5 q0 -16 -2 -37.5t1 -43t12 -36t34 -14.5q12 0 24 6q-18 6 -31.5 21.5t-13.5 38.5q0 27 18.5 45t45.5 18t45 -18.5t18 -44.5q0 -47 -29.5 -77t-76.5 -30q-43 0 -75 16.5t-53.5 44t-32.5 63.5t-11 75q0 14 1 31.5t-2 33t-12.5 26.5t-29.5 11h-193v-258h80v-43h-287zM565 641 h172q18 0 31.5 12.5t13.5 30.5v172q0 43 -43 43h-174v-258z" />
<glyph unicode="&#xaf;" horiz-adv-x="942" d="M61 1638v13h820v-13h-820z" />
<glyph unicode="&#xb0;" horiz-adv-x="544" d="M61 1235q0 43 16.5 82t45.5 67.5t67.5 45t81.5 16.5t81 -16.5t68 -45t46 -67.5t16 -82t-16 -82t-46 -67.5t-68 -45t-81 -16.5t-80.5 16.5t-67.5 46t-46.5 67.5t-16.5 81zM197 1139q0 -35 20.5 -55.5t54.5 -20.5q31 0 53.5 22.5t22.5 53.5v190q0 33 -22.5 54.5t-53.5 21.5 q-33 0 -54 -21.5t-21 -54.5v-190z" />
<glyph unicode="&#xb1;" horiz-adv-x="942" d="M61 205v41h820v-41h-820zM61 801v41h390v393h41v-393h389v-41h-389v-391h-41v391h-390z" />
<glyph unicode="&#xb2;" horiz-adv-x="368" d="M61 1024q0 37 8.5 61.5t24 43t36 35t44.5 34.5q16 12 29.5 26.5t13.5 37.5v108q0 35 -33 35q-50 0 -73 -41q16 -4 28.5 -16.5t12.5 -30.5q0 -20 -13.5 -33.5t-32.5 -13.5q-18 0 -31.5 13t-13.5 34q0 57 35 93t88 36t88 -39t35 -92q0 -37 -13 -61.5t-34.5 -44t-47.5 -36 t-50 -32.5q-23 -16 -39.5 -33.5t-22.5 -44.5h133q-16 12 -16 35q0 20 13.5 33.5t31.5 13.5t31.5 -13.5t13.5 -33.5q0 -31 -20.5 -52.5t-50.5 -21.5h-175z" />
<glyph unicode="&#xb3;" horiz-adv-x="368" d="M61 1153q0 18 13.5 32.5t31.5 14.5t32 -14.5t14 -32.5t-12.5 -31.5t-28.5 -15.5q20 -43 73 -43q14 0 23.5 10t9.5 25v108q0 37 -35 37q-8 0 -19 -5t-11 -28h-39q2 41 19.5 53.5t39.5 16.5q10 2 21.5 4t11.5 19v81q0 23 -21 23q-10 0 -22 -8q14 -10 14 -29q0 -12 -9 -22.5 t-22 -10.5q-33 0 -32 33q0 35 19.5 55.5t51.5 20.5q39 0 68 -31t29 -72q0 -49 -37 -79q31 -16 47 -47t16 -68q0 -59 -33.5 -92t-89.5 -33q-55 0 -89 35t-34 94z" />
<glyph unicode="&#xb4;" d="M61 1333q0 47 32 80t77 33t77 -33t32 -80q0 -92 -57.5 -149.5t-155.5 -57.5v39q100 0 143 62q-18 -6 -39 -6q-45 0 -77 32.5t-32 79.5z" />
<glyph unicode="&#xb5;" horiz-adv-x="1085" d="M31 -162h192v953h-192v38h432v-727q0 -29 24.5 -48t55.5 -19q55 0 106 16.5t89 48t60.5 76.5t22.5 105v510h-194v38h428v-38h-193v-510q0 -70 -26.5 -123.5t-70.5 -89t-102.5 -54t-119.5 -18.5q-20 0 -40 2t-40 6v-207h-432v41z" />
<glyph unicode="&#xb6;" horiz-adv-x="352" />
<glyph unicode="&#xbb;" horiz-adv-x="483" d="M25 227l186 189l-186 186l28 29l215 -215l-215 -215zM215 227l188 189l-188 186l29 29l215 -215l-215 -215z" />
<glyph unicode="&#xbf;" horiz-adv-x="950" d="M61 -188q0 86 30 160.5t83 130t125 88t156 36.5v197h41v-238q-88 0 -142.5 -51t-54.5 -129v-412q0 -35 15.5 -64.5t40 -51t56 -34.5t64.5 -13q143 0 234.5 71.5t126.5 206.5q-31 -18 -63 -19t-59.5 14t-45 42t-17.5 64q0 51 36 85.5t83 34.5q49 0 84 -34.5t35 -85.5 q0 -92 -29 -169t-82 -134.5t-127 -89t-166 -31.5t-168.5 31.5t-134 88t-89.5 135t-32 171.5zM356 709q0 49 35 84.5t84 35.5t84 -35.5t35 -84.5q0 -51 -35 -86t-84 -35t-84 34.5t-35 86.5z" />
<glyph unicode="&#xc0;" horiz-adv-x="1761" d="M61 0v41h203q150 352 304.5 707.5t312.5 734.5l616 -1442h203v-41h-633v41h184l-241 563h-461l-240 -563h185v-41h-433zM567 645h426l-213 498zM657 1763q0 35 26 60.5t62 25.5q35 0 62 -25.5t27 -60.5q0 -25 -11.5 -44t-30 -30.5t-41 -13.5t-42.5 8q18 -59 64 -97 t120 -38v-41q-113 0 -174.5 70.5t-61.5 185.5z" />
<glyph unicode="&#xc1;" horiz-adv-x="1761" d="M61 0v41h203q150 352 304.5 707.5t312.5 734.5l616 -1442h203v-41h-633v41h184l-241 563h-461l-240 -563h185v-41h-433zM567 645h426l-213 498zM864 1507v41q72 0 119 38t66 97q-43 -20 -83 5.5t-40 74.5q0 35 25.5 60.5t60.5 25.5q39 0 63.5 -25.5t24.5 -62.5 q0 -113 -61.5 -183.5t-174.5 -70.5z" />
<glyph unicode="&#xc2;" horiz-adv-x="1761" d="M61 0v41h203q150 352 304.5 707.5t312.5 734.5l616 -1442h203v-41h-633v41h184l-241 563h-461l-240 -563h185v-41h-433zM567 645h426l-213 498zM653 1630l226 228l225 -228l-29 -28l-196 196l-197 -196z" />
<glyph unicode="&#xc3;" horiz-adv-x="1761" d="M61 0v41h203q150 352 304.5 707.5t312.5 734.5l616 -1442h203v-41h-633v41h184l-241 563h-461l-240 -563h185v-41h-433zM567 645h426l-213 498zM653 1720q16 47 47 88t78 41t73 -33.5t46 -74.5q6 -12 13.5 -28.5t16.5 -31t22.5 -23.5t29.5 -9q27 0 49.5 29.5t36.5 70.5 l39 -12q-14 -45 -46 -87t-79 -42t-72.5 33.5t-46.5 74.5q-10 27 -29.5 59.5t-52.5 32.5q-29 0 -49 -28.5t-39 -69.5z" />
<glyph unicode="&#xc4;" horiz-adv-x="1761" d="M61 0v41h203q150 352 304.5 707.5t312.5 734.5l616 -1442h203v-41h-633v41h184l-241 563h-461l-240 -563h185v-41h-433zM567 645h426l-213 498zM657 1763q0 37 25 61.5t63 24.5q35 0 62 -25.5t27 -60.5q0 -37 -27 -62.5t-62 -25.5q-37 0 -62.5 25.5t-25.5 62.5zM926 1763 q0 35 25.5 60.5t60.5 25.5q37 0 62.5 -25.5t25.5 -60.5q0 -37 -25.5 -62.5t-62.5 -25.5q-35 0 -60.5 25.5t-25.5 62.5z" />
<glyph unicode="&#xc5;" horiz-adv-x="1761" d="M61 0v41h203q150 352 304.5 707.5t312.5 734.5l616 -1442h203v-41h-633v41h184l-241 563h-461l-240 -563h185v-41h-433zM567 645h426l-213 498zM791 1761q0 37 25.5 62.5t62.5 25.5t62.5 -25.5t25.5 -62.5t-25.5 -61.5t-62.5 -24.5q-35 0 -61.5 25.5t-26.5 60.5z M866 1729q0 -12 13 -13q6 0 10 6q2 2 2 7v67q0 12 -12 12t-13 -12v-67z" />
<glyph unicode="&#xc6;" horiz-adv-x="2177" d="M61 0v41h203l619 1436l383 -887v815h-195v41h821q98 0 161 -64.5t63 -173.5h-41q-4 90 -53.5 143.5t-129.5 53.5h-383v-662h400v-41h-400v-661h383q98 0 146 68q-29 -12 -58.5 -8.5t-53 20t-39 42t-15.5 58.5q0 49 36 85t85 36q51 0 87 -36t36 -85q-2 -98 -63 -159.5 t-161 -61.5h-821v41h184l-241 561h-463l-242 -561h187v-41h-435zM569 643h426l-213 496z" />
<glyph unicode="&#xc7;" horiz-adv-x="1159" d="M61 719q0 131 43 261t123 233.5t194 168t257 64.5q92 0 169 -32t132 -89t87 -135t32 -170q0 -51 -35 -86t-86 -35q-49 0 -85 36t-36 87q0 37 17.5 64.5t45 42t60.5 14.5t61 -19q-33 133 -124 206t-238 73q-78 0 -146.5 -30t-120 -82t-81 -121.5t-29.5 -147.5v-604 q0 -80 29.5 -149.5t81 -122t120 -82t146.5 -29.5q180 0 281.5 100.5t97.5 280.5h41q0 -74 -18.5 -143.5t-56.5 -126t-94 -94.5t-130 -50q98 -55 98 -188q0 -98 -61.5 -160t-157.5 -62q-49 0 -84 36t-35 85q0 51 35 87t84 36q33 0 58.5 -15.5t42 -40t20.5 -54t-8 -58.5 q66 47 65 146q0 82 -50 132t-128 50q-143 -2 -258 61.5t-195 168t-122 234.5t-42 259z" />
<glyph unicode="&#xc8;" horiz-adv-x="1153" d="M61 0v41h193v1370h-193v41h811q96 0 158 -64.5t62 -173.5h-41q-8 88 -52.5 142.5t-121.5 54.5h-383v-666h393v-40h-393v-664h378q96 0 144 68q-29 -12 -58.5 -7.5t-53 20t-38 42t-14.5 57.5q0 51 35 87t84 36q51 0 86 -36t35 -87q0 -96 -62 -158.5t-158 -62.5h-811z M453 1763q0 35 25.5 60.5t60.5 25.5q37 0 62.5 -25.5t25.5 -60.5q0 -25 -11.5 -43t-29 -30.5t-40 -14.5t-42.5 8q16 -59 63 -97t119 -38v-41q-113 0 -173 71.5t-60 184.5z" />
<glyph unicode="&#xc9;" horiz-adv-x="1153" d="M61 0v41h193v1370h-193v41h811q96 0 158 -64.5t62 -173.5h-41q-8 88 -52.5 142.5t-121.5 54.5h-383v-666h393v-40h-393v-664h378q96 0 144 68q-29 -12 -58.5 -7.5t-53 20t-38 42t-14.5 57.5q0 51 35 87t84 36q51 0 86 -36t35 -87q0 -96 -62 -158.5t-158 -62.5h-811z M657 1507v41q72 0 118 38t65 97q-23 -10 -44.5 -8t-39 14.5t-28.5 31t-11 42.5q0 35 25.5 61.5t62.5 26.5q35 0 60.5 -26.5t25.5 -61.5q0 -115 -60.5 -185.5t-173.5 -70.5z" />
<glyph unicode="&#xca;" horiz-adv-x="1153" d="M61 0v41h193v1370h-193v41h811q96 0 158 -64.5t62 -173.5h-41q-8 88 -52.5 142.5t-121.5 54.5h-383v-666h393v-40h-393v-664h378q96 0 144 68q-29 -12 -58.5 -7.5t-53 20t-38 42t-14.5 57.5q0 51 35 87t84 36q51 0 86 -36t35 -87q0 -96 -62 -158.5t-158 -62.5h-811z M449 1630l223 228l223 -228l-29 -28l-194 196l-195 -196z" />
<glyph unicode="&#xcb;" horiz-adv-x="1153" d="M61 0v41h193v1370h-193v41h811q96 0 158 -64.5t62 -173.5h-41q-8 88 -52.5 142.5t-121.5 54.5h-383v-666h393v-40h-393v-664h378q96 0 144 68q-29 -12 -58.5 -7.5t-53 20t-38 42t-14.5 57.5q0 51 35 87t84 36q51 0 86 -36t35 -87q0 -96 -62 -158.5t-158 -62.5h-811z M453 1763q0 35 25.5 60.5t60.5 25.5q37 0 62.5 -25.5t25.5 -60.5q0 -37 -25.5 -62.5t-62.5 -25.5q-35 0 -60.5 25.5t-25.5 62.5zM717 1763q0 39 24.5 62.5t63.5 23.5q35 0 60.5 -25.5t25.5 -60.5q0 -37 -25.5 -62.5t-60.5 -25.5q-37 0 -62.5 25.5t-25.5 62.5z" />
<glyph unicode="&#xcc;" horiz-adv-x="737" d="M61 0v41h191v1370h-191v41h615v-41h-191v-1370h191v-41h-615zM250 1761q0 35 25.5 61.5t60.5 26.5t59.5 -25.5t24.5 -60.5q0 -25 -11.5 -43t-27.5 -30.5t-37.5 -14.5t-42.5 8q16 -59 61.5 -97t116.5 -38v-41q-117 0 -168 72t-61 182z" />
<glyph unicode="&#xcd;" horiz-adv-x="737" d="M61 0v41h191v1370h-191v41h615v-41h-191v-1370h191v-41h-615zM256 1507v41q66 2 111 41t65 92q-43 -16 -80 9.5t-37 72.5q0 35 26 61.5t60 26.5q37 0 60.5 -26.5t23.5 -63.5q0 -45 -15 -90t-45 -82t-72 -59.5t-97 -22.5z" />
<glyph unicode="&#xce;" horiz-adv-x="737" d="M61 0v41h191v1370h-191v41h615v-41h-191v-1370h191v-41h-615zM246 1731l123 127l120 -127l-28 -29l-92 96l-95 -96z" />
<glyph unicode="&#xcf;" horiz-adv-x="737" d="M61 0v41h191v1370h-191v41h615v-41h-191v-1370h191v-41h-615zM154 1763q0 35 24.5 60.5t59.5 25.5t60.5 -25.5t25.5 -60.5q0 -37 -25.5 -62.5t-60.5 -25.5t-59.5 25.5t-24.5 62.5zM414 1763q0 35 24.5 60.5t59.5 25.5t59.5 -25.5t24.5 -60.5q0 -37 -24.5 -62.5 t-59.5 -25.5t-59.5 25.5t-24.5 62.5z" />
<glyph unicode="&#xd0;" horiz-adv-x="1357" d="M61 0v41h195v657h-195v41h195v664h-195v43h617q143 0 258 -64.5t194.5 -167t122.5 -232.5t43 -259q0 -131 -43 -260t-123.5 -232.5t-195.5 -167t-258 -63.5h-615zM496 41h180q78 0 147.5 29.5t120.5 82t81 121t30 148.5v602q0 80 -30 148.5t-81 119.5t-119.5 81 t-148.5 30h-180v-664h194v-41h-194v-657z" />
<glyph unicode="&#xd1;" horiz-adv-x="1556" d="M61 0v41h195v1370h-195v41h428l771 -1354v1313h-195v41h430v-41h-195v-1370h195v-41h-631v41h180l-747 1313v-1313h195v-41h-431zM551 1720q14 47 45 88t78 41t72.5 -33.5t46.5 -74.5q6 -12 13 -28.5t16 -31t22.5 -23.5t29.5 -9q27 0 49.5 29.5t37.5 70.5l38 -12 q-16 -45 -47 -87t-78 -42t-72.5 33.5t-43.5 74.5q-12 27 -31.5 59.5t-52.5 32.5q-25 0 -47.5 -29.5t-36.5 -70.5z" />
<glyph unicode="&#xd2;" horiz-adv-x="1363" d="M61 725q0 131 43 261t124 233.5t196 168t258 64.5t258 -64.5t196 -168t124 -233.5t43 -261t-43 -260t-124 -232.5t-196 -168t-258 -64.5t-258 64.5t-196 168t-124 232.5t-43 260zM303 424q0 -80 29.5 -149.5t81 -122t120 -82t148.5 -29.5q78 0 147.5 29.5t120.5 82 t81 122t30 149.5v604q0 80 -30 149.5t-81 122t-120.5 82t-147.5 29.5t-147.5 -29.5t-121 -82t-81 -122t-29.5 -149.5v-604zM461 1761q0 37 24.5 62.5t61.5 25.5t62.5 -25.5t25.5 -60.5q0 -49 -40 -74.5t-83 -5.5q16 -59 63.5 -97t118.5 -38v-43q-57 -2 -100 17.5t-72.5 53.5 t-45 82t-15.5 103z" />
<glyph unicode="&#xd3;" horiz-adv-x="1363" d="M61 725q0 131 43 261t124 233.5t196 168t258 64.5t258 -64.5t196 -168t124 -233.5t43 -261t-43 -260t-124 -232.5t-196 -168t-258 -64.5t-258 64.5t-196 168t-124 232.5t-43 260zM303 424q0 -80 29.5 -149.5t81 -122t120 -82t148.5 -29.5q78 0 147.5 29.5t120.5 82 t81 122t30 149.5v604q0 80 -30 149.5t-81 122t-120.5 82t-147.5 29.5t-147.5 -29.5t-121 -82t-81 -122t-29.5 -149.5v-604zM666 1507v41q72 0 118.5 38t63.5 97q-20 -10 -42 -8t-39 13.5t-28.5 31t-11.5 43.5q0 35 25.5 60.5t60.5 25.5q37 0 62.5 -24.5t25.5 -61.5 q0 -115 -61 -185.5t-174 -70.5z" />
<glyph unicode="&#xd4;" horiz-adv-x="1363" d="M61 725q0 131 43 261t124 233.5t196 168t258 64.5t258 -64.5t196 -168t124 -233.5t43 -261t-43 -260t-124 -232.5t-196 -168t-258 -64.5t-258 64.5t-196 168t-124 232.5t-43 260zM303 424q0 -80 29.5 -149.5t81 -122t120 -82t148.5 -29.5q78 0 147.5 29.5t120.5 82 t81 122t30 149.5v604q0 80 -30 149.5t-81 122t-120.5 82t-147.5 29.5t-147.5 -29.5t-121 -82t-81 -122t-29.5 -149.5v-604zM455 1630l225 228l223 -228l-29 -28l-194 196l-197 -196z" />
<glyph unicode="&#xd5;" horiz-adv-x="1363" d="M61 725q0 131 43 261t124 233.5t196 168t258 64.5t258 -64.5t196 -168t124 -233.5t43 -261t-43 -260t-124 -232.5t-196 -168t-258 -64.5t-258 64.5t-196 168t-124 232.5t-43 260zM303 424q0 -80 29.5 -149.5t81 -122t120 -82t148.5 -29.5q78 0 147.5 29.5t120.5 82 t81 122t30 149.5v604q0 80 -30 149.5t-81 122t-120.5 82t-147.5 29.5t-147.5 -29.5t-121 -82t-81 -122t-29.5 -149.5v-604zM457 1720q14 47 44.5 88t78.5 41q47 0 72.5 -33.5t45.5 -74.5q6 -12 13.5 -28.5t16.5 -30t22.5 -23.5t29.5 -10q25 0 47.5 29.5t36.5 70.5l39 -12 q-14 -45 -45 -87t-78 -42t-72.5 33.5t-43.5 74.5q-12 27 -32 59.5t-52 32.5q-25 0 -47.5 -29.5t-36.5 -70.5z" />
<glyph unicode="&#xd6;" horiz-adv-x="1363" d="M61 725q0 131 43 261t124 233.5t196 168t258 64.5t258 -64.5t196 -168t124 -233.5t43 -261t-43 -260t-124 -232.5t-196 -168t-258 -64.5t-258 64.5t-196 168t-124 232.5t-43 260zM303 424q0 -80 29.5 -149.5t81 -122t120 -82t148.5 -29.5q78 0 147.5 29.5t120.5 82 t81 122t30 149.5v604q0 80 -30 149.5t-81 122t-120.5 82t-147.5 29.5t-147.5 -29.5t-121 -82t-81 -122t-29.5 -149.5v-604zM461 1763q0 35 25.5 60.5t60.5 25.5q37 0 62.5 -25.5t25.5 -60.5q0 -37 -25.5 -62.5t-62.5 -25.5q-35 0 -60.5 25.5t-25.5 62.5zM727 1763 q0 35 25.5 60.5t60.5 25.5t60.5 -25.5t25.5 -60.5q0 -37 -25.5 -62.5t-60.5 -25.5t-60.5 25.5t-25.5 62.5z" />
<glyph unicode="&#xd8;" horiz-adv-x="1363" d="M57 23l174 204q-86 104 -128 232.5t-42 263.5q0 131 43 260t124 231.5t196 167t258 64.5q123 0 231.5 -52.5t192.5 -144.5l170 201l31 -27l-174 -204q86 -104 128 -232.5t42 -263.5q0 -131 -43 -260t-124 -232.5t-196 -167t-258 -63.5q-125 0 -233.5 52t-190.5 143 l-170 -197zM303 422q0 -51 12 -96l717 839q-43 109 -138 173.5t-212 64.5q-78 0 -147.5 -30t-121 -81t-81 -120.5t-29.5 -147.5v-602zM330 281q45 -111 140 -175.5t212 -64.5q78 0 147.5 29.5t120.5 82t81 121t30 148.5v602q0 47 -12 96z" />
<glyph unicode="&#xd9;" horiz-adv-x="1761" d="M61 1411v41h633v-41h-194v-987q0 -80 29.5 -149.5t82 -122t121 -82t148.5 -29.5t148.5 29.5t120.5 82t82 122t30 149.5v987h-195v41h633v-41h-195q0 -156 -1 -339t-1 -353q0 -131 -42 -260t-121.5 -230.5t-195.5 -165t-263 -63.5t-264 63.5t-197 167t-122 232.5t-42 262 v686h-195zM657 1763q0 37 26 61.5t62 24.5q35 0 62 -25.5t27 -60.5q0 -25 -11.5 -44t-30 -30.5t-41 -13.5t-42.5 8q18 -59 64 -97t120 -38v-41q-111 2 -173.5 72.5t-62.5 183.5z" />
<glyph unicode="&#xda;" horiz-adv-x="1761" d="M61 1411v41h633v-41h-194v-987q0 -80 29.5 -149.5t82 -122t121 -82t148.5 -29.5t148.5 29.5t120.5 82t82 122t30 149.5v987h-195v41h633v-41h-195q0 -68 -1 -158t-1 -188t-1 -197.5t-1 -183.5q0 -127 -45 -250t-126 -219t-195.5 -155.5t-253.5 -59.5q-150 0 -265.5 63.5 t-195.5 167t-122 232.5t-42 262v686h-195zM864 1507v41q72 0 119 38t66 97q-43 -20 -83 5.5t-40 74.5q0 35 25.5 60.5t60.5 25.5q37 0 62.5 -25.5t25.5 -62.5q0 -113 -61.5 -182.5t-174.5 -71.5z" />
<glyph unicode="&#xdb;" horiz-adv-x="1761" d="M61 1411v41h633v-41h-194v-987q0 -80 29.5 -149.5t82 -122t121 -82t148.5 -29.5t148.5 29.5t120.5 82t82 122t30 149.5v987h-195v41h633v-41h-195q0 -156 -1 -337t-1 -355q0 -131 -42 -260t-121.5 -230.5t-195.5 -165t-263 -63.5t-264 63.5t-197 167t-122 232.5t-42 262 v686h-195zM651 1630l228 228l225 -228l-29 -28l-196 196l-197 -196z" />
<glyph unicode="&#xdc;" horiz-adv-x="1761" d="M61 1411v41h633v-41h-194v-987q0 -80 29.5 -149.5t82 -122t121 -82t148.5 -29.5t148.5 29.5t120.5 82t82 122t30 149.5v987h-195v41h633v-41h-195q0 -156 -1 -339t-1 -353q0 -131 -43 -259t-123 -230.5t-195.5 -166t-260.5 -63.5q-147 0 -264 63.5t-197 167t-122 232.5 t-42 262v686h-195zM657 1763q0 35 26 61.5t62 26.5q35 0 62 -26.5t27 -61.5q0 -37 -27 -62.5t-62 -25.5q-37 0 -62.5 25.5t-25.5 62.5zM926 1763q0 39 23.5 63.5t62.5 24.5q37 0 62.5 -26.5t25.5 -61.5q0 -37 -25.5 -62.5t-62.5 -25.5q-35 0 -60.5 25.5t-25.5 62.5z" />
<glyph unicode="&#xdd;" horiz-adv-x="1351" d="M61 1411v41h629v-41h-180l266 -539l266 539h-182v41h430v-41h-203l-290 -590v-780h194v-41h-631v41h195v780l-291 590h-203zM659 1507v41q78 0 130.5 43.5t60.5 106.5q-23 -20 -45.5 -21.5t-41 10t-30.5 32t-12 44.5q0 35 25.5 60.5t60.5 25.5q37 0 62.5 -25.5 t25.5 -62.5q0 -111 -61.5 -182.5t-174.5 -71.5z" />
<glyph unicode="&#xe0;" horiz-adv-x="1091" d="M31 420q0 86 32.5 162.5t89 134t133 90.5t163.5 33q47 0 92 -9.5t86 -29.5v39h239v-799h195v-41h-434v41q-86 -41 -178 -41q-88 0 -164 34t-132.5 90t-89 133t-32.5 163zM229 1151q0 37 26 63.5t60 26.5q37 0 62.5 -26.5t25.5 -61.5q0 -47 -39.5 -72.5t-82.5 -7.5 q16 -57 63 -95t119 -38v-41q-119 0 -169.5 69.5t-64.5 182.5zM270 221q0 -88 46 -134t133 -46q74 0 126 52t52 126v402q0 74 -52.5 126t-125.5 52q-74 0 -126.5 -52.5t-52.5 -125.5v-400z" />
<glyph unicode="&#xe1;" horiz-adv-x="1091" d="M31 420q0 86 32.5 162.5t89 134t133 90.5t163.5 33q47 0 92 -9.5t86 -29.5v39h239v-799h195v-41h-434v41q-86 -41 -178 -41q-88 0 -164 34t-132.5 90t-89 133t-32.5 163zM270 221q0 -88 46 -134t133 -46q74 0 126 52t52 126v402q0 74 -52.5 126t-125.5 52 q-74 0 -126.5 -52.5t-52.5 -125.5v-400zM434 899v41q72 0 119 38t63 95q-20 -10 -41.5 -7t-39 14.5t-28.5 29.5t-11 43q0 35 25.5 60.5t60.5 25.5t60.5 -25.5t25.5 -60.5q0 -113 -60.5 -183.5t-173.5 -70.5z" />
<glyph unicode="&#xe2;" horiz-adv-x="1091" d="M31 420q0 86 32.5 162.5t89 134t133 90.5t163.5 33q47 0 92 -9.5t86 -29.5v39h239v-799h195v-41h-434v41q-86 -41 -178 -41q-88 0 -164 34t-132.5 90t-89 133t-32.5 163zM225 1024l224 225l225 -225l-31 -29l-194 195l-121 -121t-54 -55l-14 -15l-4 -4q-18 14 -23 21 q-6 4 -8 8zM270 221q0 -80 46 -130t124 -50t132.5 50t54.5 128v402q0 74 -52.5 126t-125.5 52q-74 0 -126.5 -52.5t-52.5 -125.5v-400z" />
<glyph unicode="&#xe3;" horiz-adv-x="1091" d="M31 420q0 86 32.5 162.5t89 134t133 90.5t163.5 33q47 0 92 -9.5t86 -29.5v39h239v-799h195v-41h-434v41q-86 -41 -178 -41q-88 0 -164 34t-132.5 90t-89 133t-32.5 163zM225 1112q16 45 47 87t78 42t71.5 -33.5t45.5 -74.5q6 -12 13 -29t16.5 -31t22.5 -23.5t30 -9.5 q25 0 47 30t37 71l39 -13q-14 -47 -45 -88t-78 -41t-72.5 34t-44.5 75q-12 27 -30.5 58.5t-51.5 31.5q-27 0 -49 -28.5t-37 -69.5zM270 221q0 -80 46 -130t124 -50t132.5 50t54.5 128v402q0 74 -52.5 126t-125.5 52q-74 0 -126.5 -52.5t-52.5 -125.5v-400z" />
<glyph unicode="&#xe4;" horiz-adv-x="1091" d="M31 420q0 86 32.5 162.5t89 134t133 90.5t163.5 33q47 0 92 -9.5t86 -29.5v39h239v-799h195v-41h-434v41q-86 -41 -178 -41q-88 0 -164 34t-132.5 90t-89 133t-32.5 163zM229 1151q0 39 23.5 63.5t62.5 24.5q37 0 62.5 -25.5t25.5 -60.5t-25.5 -61.5t-62.5 -26.5 q-35 0 -60.5 24.5t-25.5 61.5zM270 221q0 -80 48.5 -130t125.5 -50q78 0 130.5 50t52.5 128v402q0 74 -52.5 126t-125.5 52q-74 0 -126.5 -52.5t-52.5 -125.5v-400zM496 1153q0 35 25.5 60.5t60.5 25.5t60.5 -25.5t25.5 -60.5t-25.5 -61.5t-60.5 -26.5t-60.5 26.5 t-25.5 61.5z" />
<glyph unicode="&#xe5;" horiz-adv-x="1091" d="M31 420q0 86 32.5 162.5t89 134t133 90.5t163.5 33q47 0 92 -9.5t86 -29.5v39h239v-799h195v-41h-434v41q-86 -41 -178 -41q-88 0 -164 34t-132.5 90t-89 133t-32.5 163zM270 221q0 -80 45 -130t123 -50t133.5 50t55.5 128v402q0 74 -52.5 126t-125.5 52 q-74 0 -126.5 -52.5t-52.5 -125.5v-400zM362 1153q0 37 26 62.5t61 25.5q37 0 62.5 -26.5t25.5 -61.5q0 -37 -25.5 -62.5t-62.5 -25.5q-35 0 -61 25.5t-26 62.5zM436 1120q0 -14 13 -14q14 0 14 14v66q0 12 -14 12q-12 0 -13 -12v-66z" />
<glyph unicode="&#xe6;" horiz-adv-x="1507" d="M31 416q0 86 32.5 161.5t90 132t134.5 89t165 32.5q92 0 180 -40v40h241v-40q86 41 181 40q88 0 164.5 -33.5t134 -93t90.5 -138.5t33 -171h-603v-178q0 -37 14.5 -68.5t39 -55t57.5 -38t70 -14.5q29 0 60.5 6.5t60.5 20.5q-33 4 -54.5 27.5t-21.5 56.5q0 35 25.5 60.5 t62.5 25.5q35 0 61.5 -26t26.5 -60q0 -43 -23.5 -72t-57.5 -47.5t-72 -25.5t-68 -7q-92 0 -181 39v-39h-241v41q-86 -41 -180 -41q-86 0 -163 33t-134.5 90t-91 132t-33.5 161zM272 217q0 -74 52.5 -125t128.5 -51q74 0 127 51t53 125v397q0 37 -14.5 69t-39 55.5t-57.5 38 t-69 14.5q-76 0 -128.5 -52.5t-52.5 -126.5v-395zM874 436h361v176q0 179 -180 179q-86 0 -133.5 -48.5t-47.5 -130.5v-176z" />
<glyph unicode="&#xe7;" horiz-adv-x="688" d="M31 412q0 92 30.5 168.5t85 132t129 87t164.5 31.5q31 0 68 -7t69.5 -25.5t55 -48t22.5 -72.5q0 -35 -23.5 -61.5t-60.5 -26.5q-35 0 -60.5 25.5t-25.5 62.5q0 33 20.5 56.5t51.5 27.5q-27 14 -58.5 21.5t-58.5 7.5q-78 0 -126 -41t-48 -121v-416q0 -37 13.5 -69.5 t37 -56.5t55 -38t68.5 -14q29 0 60.5 6t58.5 20q-31 4 -52.5 28t-21.5 58q0 35 26 60.5t60 25.5q35 0 60.5 -25.5t25.5 -60.5q0 -63 -43 -96t-92 -47q27 -23 35 -57.5t-2 -67.5t-39 -57.5t-74 -24.5q-29 0 -49 19.5t-20 50.5q0 29 19.5 50.5t47.5 21.5q27 0 46.5 -18.5 t23.5 -45.5q20 41 1 81t-71 40q-86 0 -160.5 32.5t-130 89t-87 132.5t-31.5 162z" />
<glyph unicode="&#xe8;" horiz-adv-x="892" d="M31 420q0 86 32.5 162.5t90 134t132 90.5t160.5 33q92 0 169 -36t131.5 -96.5t85 -140.5t30.5 -168h-594v-178q0 -76 52.5 -128t125.5 -52q29 0 59.5 6.5t57.5 20.5q-31 4 -51 28.5t-20 57.5q0 35 25.5 61.5t60.5 26.5t60.5 -27t25.5 -61q0 -45 -23 -75t-55.5 -47.5 t-70.5 -24.5t-69 -7q-90 0 -165.5 31.5t-131 88t-87 133.5t-31.5 167zM227 1153q0 35 26 60.5t60 25.5q37 0 62.5 -25.5t25.5 -60.5q0 -47 -39.5 -72.5t-82.5 -7.5q18 -57 64 -95t118 -38v-41q-111 0 -172.5 70.5t-61.5 183.5zM268 440h355v181q0 78 -50.5 128t-126.5 50 q-78 0 -127 -50.5t-51 -127.5v-181z" />
<glyph unicode="&#xe9;" horiz-adv-x="892" d="M31 420q0 86 32.5 162.5t90 134t132 90.5t160.5 33q133 0 230.5 -69t148.5 -191q16 -37 26.5 -82t10.5 -99h-594v-178q0 -76 52.5 -128t125.5 -52q29 0 59.5 6.5t57.5 20.5q-31 4 -51 28.5t-20 57.5q0 35 25.5 61.5t60.5 26.5t60.5 -27t25.5 -61q0 -45 -23 -75 t-55.5 -47.5t-70.5 -24.5t-69 -7q-90 0 -165.5 31.5t-131 88t-87 133.5t-31.5 167zM268 440h355v63.5v23.5t0 3t0 3.5v24v63.5q0 78 -49.5 128t-127.5 50t-128 -50.5t-50 -127.5v-181zM432 899v41q72 0 118 38t62 95q-20 -10 -41.5 -7t-39 14.5t-28.5 29.5t-11 43 q0 35 25.5 61.5t60.5 26.5q39 0 62.5 -27.5t23.5 -64.5q0 -111 -60.5 -181.5t-171.5 -68.5z" />
<glyph unicode="&#xea;" horiz-adv-x="892" d="M31 420q0 86 32.5 162.5t90 134t132 90.5t160.5 33q92 0 169 -36t131.5 -96.5t85 -140.5t30.5 -168h-594v-178q0 -76 52.5 -128t125.5 -52q29 0 59.5 6.5t57.5 20.5q-31 4 -51 28.5t-20 57.5q0 35 25.5 61.5t60.5 26.5t60.5 -27t25.5 -61q0 -45 -23 -75t-55.5 -47.5 t-70.5 -24.5t-69 -7q-90 0 -165.5 31.5t-131 88t-87 133.5t-31.5 167zM223 1024l223 225l222 -225l-29 -29l-193 195q-82 -82 -120.5 -121t-53.5 -53l-14 -15l-4 -4q-8 6 -13 10.5t-10 8.5q-6 4 -8 8zM268 440h355v181q0 78 -49.5 128t-127.5 50t-128 -51.5t-50 -129.5v-178 z" />
<glyph unicode="&#xeb;" horiz-adv-x="892" d="M31 420q0 86 32.5 162.5t90 134t132 90.5t160.5 33q92 0 169 -36t131.5 -96.5t85 -140.5t30.5 -168h-594v-178q0 -76 52.5 -128t125.5 -52q29 0 59.5 6.5t57.5 20.5q-31 4 -51 28.5t-20 57.5q0 35 25.5 61.5t60.5 26.5t60.5 -27t25.5 -61q0 -45 -23 -75t-55.5 -47.5 t-70.5 -24.5t-69 -7q-90 0 -165.5 31.5t-131 88t-87 133.5t-31.5 167zM227 1153q0 35 26 61.5t62 26.5q35 0 60.5 -26.5t25.5 -61.5t-25.5 -61.5t-60.5 -26.5q-37 0 -62.5 26.5t-25.5 61.5zM268 440h355v181q0 78 -49.5 128t-127.5 50t-128 -50.5t-50 -127.5v-181zM492 1153 q0 39 24.5 63.5t61.5 24.5q35 0 60.5 -26.5t25.5 -61.5t-25.5 -61.5t-60.5 -26.5t-60.5 26.5t-25.5 61.5z" />
<glyph unicode="&#xec;" horiz-adv-x="675" d="M31 0v41h190v758h-190v41h424v-799h190v-41h-614zM221 1153q0 37 24.5 62.5t59.5 25.5t60.5 -26.5t25.5 -61.5q0 -47 -39 -73.5t-82 -6.5q16 -57 62.5 -95t118.5 -38v-41q-111 0 -170.5 71.5t-59.5 182.5z" />
<glyph unicode="&#xed;" horiz-adv-x="675" d="M31 0v41h190v758h-190v41h424v-799h190v-41h-614zM225 899v41q72 0 118 38t63 95q-43 -18 -82 7.5t-39 72.5q0 35 25.5 61.5t60.5 26.5q33 0 59.5 -23.5t26.5 -60.5q0 -53 -15.5 -100t-44 -83t-72 -56.5t-100.5 -18.5z" />
<glyph unicode="&#xee;" horiz-adv-x="675" d="M31 0v41h190v758h-190v43l424 -2v-799h190v-41h-614zM215 1124l123 125l123 -125l-29 -28l-94 94q-37 -37 -54.5 -55.5t-24.5 -25.5l-8 -8l-5 -5q-8 6 -13.5 11t-9.5 9q-6 4 -8 8z" />
<glyph unicode="&#xef;" horiz-adv-x="675" d="M31 0v41h190v758h-190v41h424v-799h190v-41h-614zM121 1153q0 35 25.5 61.5t60.5 26.5t59.5 -26.5t24.5 -61.5t-24.5 -61.5t-59.5 -26.5t-60.5 26.5t-25.5 61.5zM381 1153q0 39 24.5 63.5t61.5 24.5q35 0 59.5 -26.5t24.5 -61.5t-24.5 -61.5t-59.5 -26.5t-60.5 26.5 t-25.5 61.5z" />
<glyph unicode="&#xf1;" horiz-adv-x="1290" d="M31 0v41h194v758h-194v41h434v-174q37 33 83 64.5t95 56t100.5 39t102.5 14.5q96 0 157.5 -60.5t61.5 -158.5v-580h195v-41h-629v41h194v758q-96 -8 -193 -64.5t-167 -122.5v-612h-434zM422 1112q14 45 45 86t78 41t72.5 -32.5t46.5 -76.5q10 -25 28.5 -57.5t52.5 -32.5 q27 0 48.5 30t37.5 71l37 -13q-14 -47 -45 -88t-78 -41t-72.5 34t-45.5 75q-10 27 -28.5 58.5t-53.5 31.5q-27 0 -48.5 -28.5t-35.5 -69.5z" />
<glyph unicode="&#xf2;" horiz-adv-x="892" d="M31 420q0 88 32.5 163.5t89 133t132 90.5t161.5 33t162 -33t132.5 -90.5t89 -133t32.5 -163.5q0 -86 -32.5 -163t-90 -133t-132.5 -90t-161 -34q-84 0 -159.5 34t-132 91t-90 134t-33.5 161zM227 1153q0 35 26 61.5t60 26.5q37 0 62.5 -26.5t25.5 -61.5 q0 -47 -39.5 -72.5t-82.5 -7.5q16 -57 63 -95t119 -38v-41q-111 0 -172.5 70.5t-61.5 183.5zM268 221q0 -76 52.5 -128t125.5 -52q74 0 125.5 52t51.5 128v400q0 37 -14.5 69.5t-38 56t-55.5 38t-69 14.5q-74 0 -126 -52.5t-52 -125.5v-400z" />
<glyph unicode="&#xf3;" horiz-adv-x="892" d="M31 420q0 88 32.5 163.5t89 133t132 90.5t161.5 33t162 -33t132.5 -90.5t89 -133t32.5 -163.5q0 -86 -32.5 -163t-90 -133t-132.5 -90t-161 -34q-84 0 -159.5 34t-132 91t-90 134t-33.5 161zM268 221q0 -76 52.5 -128t125.5 -52q74 0 125.5 52t51.5 128v400 q0 37 -14.5 69.5t-38 56t-55.5 38t-69 14.5q-74 0 -126 -52.5t-52 -125.5v-400zM432 899v41q72 0 118 38t62 95q-20 -10 -41.5 -7t-39 14.5t-28.5 29.5t-11 43q0 35 25.5 61.5t60.5 26.5t60.5 -26.5t25.5 -61.5q0 -111 -60.5 -182.5t-171.5 -71.5z" />
<glyph unicode="&#xf4;" horiz-adv-x="892" d="M31 420q0 88 32.5 163.5t89 133t132 90.5t161.5 33t162 -33t132.5 -90.5t89 -133t32.5 -163.5q0 -86 -32.5 -163t-90 -133t-132.5 -90t-161 -34q-84 0 -159.5 34t-132 91t-90 134t-33.5 161zM223 1024l223 225l222 -225l-29 -29l-193 195q-82 -82 -120.5 -121t-53.5 -55 l-14 -15l-4 -4q-6 6 -12 11.5t-11 9.5q-6 4 -8 8zM268 221q0 -76 52.5 -128t125.5 -52q74 0 125.5 52t51.5 128v400q0 37 -14.5 69.5t-38 56t-55.5 38t-69 14.5q-74 0 -126 -52.5t-52 -125.5v-400z" />
<glyph unicode="&#xf5;" horiz-adv-x="892" d="M31 420q0 88 32.5 163.5t89 133t132 90.5t161.5 33t162 -33t132.5 -90.5t89 -133t32.5 -163.5q0 -86 -32.5 -163t-90 -133t-132.5 -90t-161 -34q-84 0 -159.5 34t-132 91t-90 134t-33.5 161zM225 1112q14 45 45 87t78 42t71.5 -33.5t43.5 -74.5q6 -12 13 -29t16.5 -31 t22.5 -23.5t30 -9.5q27 0 48 30t36 71l39 -13q-14 -47 -45 -88t-78 -41t-71.5 34t-45.5 75q-10 27 -28.5 59.5t-51.5 32.5q-27 0 -49.5 -29.5t-36.5 -70.5zM268 221q0 -76 52.5 -128t125.5 -52q74 0 125.5 52t51.5 128v400q0 37 -14.5 69.5t-38 56t-55.5 38t-69 14.5 q-74 0 -126 -52.5t-52 -125.5v-400z" />
<glyph unicode="&#xf6;" horiz-adv-x="892" d="M31 420q0 88 32.5 163.5t89 133t132 90.5t161.5 33t162 -33t132.5 -90.5t89 -133t32.5 -163.5q0 -86 -32.5 -163t-90 -133t-132.5 -90t-161 -34q-84 0 -159.5 34t-132 91t-90 134t-33.5 161zM227 1153q0 35 26 61.5t60 26.5q37 0 62.5 -26.5t25.5 -61.5t-25.5 -61.5 t-62.5 -26.5q-35 0 -60.5 26.5t-25.5 61.5zM268 221q0 -76 52.5 -128t125.5 -52q74 0 125.5 52t51.5 128v400q0 37 -14.5 69.5t-38 56t-55.5 38t-69 14.5q-74 0 -126 -52.5t-52 -125.5v-400zM492 1153q0 37 24.5 62.5t61.5 25.5q35 0 60.5 -26.5t25.5 -61.5t-25.5 -61.5 t-60.5 -26.5t-60.5 26.5t-25.5 61.5z" />
<glyph unicode="&#xf7;" horiz-adv-x="942" d="M61 395v41h820v-41h-820zM352 119q0 49 35 84t84 35t84 -35t35 -84t-35 -84t-84 -35t-84 35t-35 84zM352 711q0 49 35 84.5t84 35.5t84 -35.5t35 -84.5t-35 -84t-84 -35t-84 35t-35 84z" />
<glyph unicode="&#xf8;" horiz-adv-x="892" d="M27 25l112 112q-53 57 -80.5 129t-27.5 150q0 86 32.5 161.5t89 132t132 89t161.5 32.5q78 0 150 -27.5t129 -80.5l113 113l28 -29l-112 -113q53 -57 80.5 -128.5t27.5 -149.5q0 -92 -31.5 -169t-87 -131.5t-131.5 -85t-166 -30.5q-76 0 -149.5 28.5t-128.5 80.5 l-113 -111zM268 209q6 -72 55.5 -120t122.5 -48q37 0 69 14.5t56.5 38t38 55t13.5 68.5v346zM268 266l355 355q-4 72 -54.5 121t-122.5 49q-74 0 -126 -52.5t-52 -126.5v-346z" />
<glyph unicode="&#xf9;" horiz-adv-x="1085" d="M31 799v41h432v-731q0 -29 24.5 -48.5t55.5 -19.5q55 0 106 16.5t89 48t60.5 76.5t22.5 105v512h-194v41h428v-41h-193v-148.5v-76v-27.5v-4v-4v-28v-76v-148q0 -68 -25.5 -121t-69.5 -90t-100.5 -56.5t-117.5 -19.5q-59 0 -117.5 20.5t-104.5 57.5t-75 90t-29 119v512 h-192zM422 1157q0 37 26.5 60.5t61.5 23.5t60.5 -26.5t25.5 -61.5q0 -23 -10.5 -42t-27.5 -30.5t-37.5 -14.5t-41.5 7q23 -53 67 -93t111 -40v-41q-57 0 -101 23.5t-73.5 61.5t-45 84t-15.5 89z" />
<glyph unicode="&#xfa;" horiz-adv-x="1085" d="M31 799v41h432v-731q0 -31 26.5 -49.5t59.5 -18.5q55 0 104 17.5t86 49t59.5 76.5t22.5 103v512h-194v41h428v-41h-193v-512q0 -70 -26.5 -123t-70.5 -90t-101.5 -55.5t-120.5 -18.5q-59 0 -116.5 20.5t-102.5 57.5t-73 90t-28 119v512h-192zM428 899v41q68 -2 112 38 t66 93q-20 -8 -40.5 -5t-38 15.5t-28 30.5t-10.5 41q0 35 26 61.5t60 26.5q35 0 62 -23.5t27 -60.5q0 -43 -15.5 -89t-45.5 -84t-74 -61.5t-101 -23.5z" />
<glyph unicode="&#xfb;" horiz-adv-x="1085" d="M31 799v41h432v-731q0 -29 25.5 -48.5t54.5 -19.5q55 0 105 16.5t89 48t61.5 77.5t22.5 104v512h-194v41h428v-41h-193v-512q0 -70 -26.5 -123t-70.5 -90t-101.5 -55.5t-120.5 -18.5q-59 0 -116.5 20.5t-102.5 57.5t-73 90t-28 119v512h-192zM317 1024l226 225l223 -225 l-29 -29l-194 195l-121 -121t-54 -53l-16 -15l-4 -4q-8 4 -13 9.5t-9 9.5q-6 4 -9 8z" />
<glyph unicode="&#xfc;" horiz-adv-x="1085" d="M31 799v41h432v-731q0 -33 25.5 -50.5t60.5 -17.5q55 0 104 17.5t86 49t59.5 76.5t22.5 103v512h-194v41h428v-41h-193v-512q0 -70 -26.5 -123t-71.5 -90t-102.5 -55.5t-120.5 -18.5q-59 0 -116.5 20.5t-101.5 57.5t-72 90t-28 119v512h-192zM330 1151q0 39 23.5 63.5 t62.5 24.5q35 0 60.5 -25.5t25.5 -60.5t-25.5 -61.5t-60.5 -26.5t-60.5 24.5t-25.5 61.5zM594 1153q0 35 25.5 60.5t60.5 25.5q37 0 62.5 -25.5t25.5 -60.5t-25.5 -61.5t-62.5 -26.5q-35 0 -60.5 26.5t-25.5 61.5z" />
<glyph unicode="&#xfd;" horiz-adv-x="1292" d="M31 -387q0 51 34.5 86t86.5 35q49 0 83.5 -35t34.5 -86q0 -35 -17 -62.5t-43 -43t-57.5 -16.5t-62.5 17q33 -76 119 -75q33 0 66.5 18.5t63.5 46t53.5 60t39.5 63.5l195 391l-389 785h-201v41h627v-41h-181l267 -537l264 537h-180v41h428v-41h-201l-592 -1194 q-16 -33 -43 -70t-61.5 -68.5t-74.5 -52t-81 -20.5q-49 0 -84 19.5t-55.5 50t-29.5 70.5t-9 81zM635 895v41q66 2 111 40t67 91q-20 -8 -41.5 -5t-38 15.5t-28 30.5t-11.5 41q0 37 27 62.5t61 25.5q35 0 60.5 -25.5t25.5 -62.5q0 -53 -16 -98t-47 -80t-74 -55.5t-96 -20.5z " />
<glyph unicode="&#xff;" horiz-adv-x="1292" d="M31 -387q0 51 34.5 86t86.5 35q49 0 83.5 -35t34.5 -86q0 -35 -17 -62.5t-43 -43t-57.5 -16.5t-62.5 17q33 -76 119 -75q33 0 66.5 18.5t63.5 46t53.5 60t39.5 63.5l195 391l-389 785h-201v41h627v-41h-181l267 -537l264 537h-180v41h428v-41h-201l-592 -1194 q-16 -33 -43 -70t-61.5 -68.5t-74.5 -52t-81 -20.5q-49 0 -84 19.5t-55.5 50t-29.5 70.5t-9 81zM430 1149q0 37 25.5 62.5t60.5 25.5q37 0 62.5 -25.5t25.5 -62.5q0 -35 -26.5 -60.5t-61.5 -25.5t-60.5 25.5t-25.5 60.5zM696 1149q0 37 26 62.5t60 25.5q35 0 60.5 -25.5 t25.5 -62.5q0 -35 -25.5 -60.5t-60.5 -25.5t-60.5 25.5t-25.5 60.5z" />
<glyph unicode="&#x152;" horiz-adv-x="1978" d="M61 723q0 131 43 260t124 231.5t197 167t261 64.5q109 0 206 -40t177 -112v109h-174h-23v10v33h824q98 0 159.5 -64.5t59.5 -173.5h-41q2 92 -49 143.5t-131 51.5h-383v-660h397v-41h-397v-661h383q98 0 145 68q-29 -12 -58.5 -8.5t-53 20t-39 42t-15.5 58.5q0 49 36 85 t85 36q51 0 87 -36t36 -85q0 -98 -62.5 -159.5t-160.5 -61.5h-822v33v8h23h174v111q-80 -72 -177 -112t-206 -40q-145 0 -261 63.5t-197 167t-124 232.5t-43 260zM305 422q0 -78 30 -147.5t82 -122t120.5 -82t148.5 -29.5t149.5 29.5t122 82t82 122t29.5 147.5v602 q0 78 -29.5 147.5t-82 120.5t-122 81t-149.5 30t-148.5 -30t-120.5 -81t-82 -120.5t-30 -147.5v-602z" />
<glyph unicode="&#x153;" horiz-adv-x="1507" d="M31 416q0 86 32.5 161.5t90 132t134.5 89t165 32.5q86 0 163.5 -32.5t137.5 -91.5q59 59 137 91.5t164 32.5q88 0 164.5 -33.5t134 -92t90.5 -138.5t33 -172h-603v-178q0 -37 14.5 -68.5t39 -55t57.5 -38t70 -14.5q29 0 59.5 6.5t59.5 20.5q-31 4 -52.5 27.5t-21.5 56.5 q0 35 25.5 60.5t62.5 25.5q35 0 64.5 -24t29.5 -62q0 -47 -23.5 -77t-58.5 -46.5t-74 -22.5t-71 -6q-86 0 -164 33t-137 92q-59 -59 -138 -92t-163 -33q-86 0 -163 33t-134.5 90t-91 132t-33.5 161zM272 217q0 -78 50.5 -127t130.5 -49q35 0 67.5 13.5t57 37t40 55 t15.5 66.5v399q0 74 -53 126.5t-127 52.5q-76 0 -128.5 -52.5t-52.5 -126.5v-395zM874 436h361v176q0 74 -53.5 126.5t-126.5 52.5q-76 0 -128.5 -52.5t-52.5 -126.5v-176z" />
<glyph unicode="&#x178;" horiz-adv-x="1351" d="M61 1411v41h629v-41h-180l266 -539l266 539h-182v41h430v-41h-203l-290 -590v-780h194v-41h-631v41h195v780l-291 590h-203zM455 1763q0 35 25.5 60.5t60.5 25.5q37 0 62.5 -25.5t25.5 -60.5q0 -37 -25.5 -62.5t-62.5 -25.5q-35 0 -60.5 25.5t-25.5 62.5zM721 1763 q0 35 25.5 60.5t60.5 25.5q37 0 62.5 -25.5t25.5 -60.5q0 -37 -25.5 -62.5t-62.5 -25.5q-35 0 -60.5 25.5t-25.5 62.5z" />
<glyph unicode="&#x2c6;" horiz-adv-x="540" d="M55 1251l215 203l215 -203l-28 -26l-187 176l-186 -176z" />
<glyph unicode="&#x2dc;" horiz-adv-x="542" d="M55 1737q10 18 20.5 38.5t25 37t32 26.5t43.5 10q43 0 67.5 -29.5t45.5 -66.5q12 -23 29.5 -52.5t48.5 -29.5q29 0 48 31t34 59l36 -12q-14 -41 -42.5 -78t-75.5 -37q-41 0 -66 30t-45 69q-12 23 -31.5 52.5t-48.5 29.5q-33 0 -51.5 -33t-30.5 -58z" />
<glyph unicode="&#x2000;" horiz-adv-x="929" />
<glyph unicode="&#x2001;" horiz-adv-x="1858" />
<glyph unicode="&#x2002;" horiz-adv-x="929" />
<glyph unicode="&#x2003;" horiz-adv-x="1858" />
<glyph unicode="&#x2004;" horiz-adv-x="619" />
<glyph unicode="&#x2005;" horiz-adv-x="464" />
<glyph unicode="&#x2006;" horiz-adv-x="309" />
<glyph unicode="&#x2007;" horiz-adv-x="309" />
<glyph unicode="&#x2008;" horiz-adv-x="232" />
<glyph unicode="&#x2009;" horiz-adv-x="371" />
<glyph unicode="&#x200a;" horiz-adv-x="103" />
<glyph unicode="&#x2010;" horiz-adv-x="942" d="M61 410v12h820v-12h-820z" />
<glyph unicode="&#x2011;" horiz-adv-x="942" d="M61 410v12h820v-12h-820z" />
<glyph unicode="&#x2012;" horiz-adv-x="942" d="M61 410v12h820v-12h-820z" />
<glyph unicode="&#x2013;" horiz-adv-x="942" d="M61 410v12h820v-12h-820z" />
<glyph unicode="&#x2014;" horiz-adv-x="1351" d="M61 410v12h1229v-12h-1229z" />
<glyph unicode="&#x2018;" d="M61 1239q0 90 56.5 148.5t154.5 58.5v-39q-98 0 -141 -64q27 12 53.5 8.5t47 -19t34 -40t13.5 -53.5q0 -47 -32 -80t-77 -33t-77 33t-32 80z" />
<glyph unicode="&#x2019;" d="M61 1333q0 47 32 80t77 33q43 0 76 -35t33 -80q0 -92 -57.5 -148.5t-155.5 -56.5v39q100 0 143 62q-27 -10 -53.5 -6t-47 19t-34 40t-13.5 53z" />
<glyph unicode="&#x201a;" d="M61 104q0 47 32 80t77 33t77 -32.5t32 -80.5q0 -90 -57.5 -147t-155.5 -57v39q100 0 143 61q-27 -10 -53.5 -6t-47 18.5t-34 39t-13.5 52.5z" />
<glyph unicode="&#x201c;" horiz-adv-x="749" d="M61 1239q0 94 59.5 150.5t170.5 56.5v-39q-109 0 -154 -64q27 10 55.5 7.5t51 -17t38 -39t15.5 -55.5q0 -47 -35 -80t-84 -33t-83 33t-34 80zM453 1239q0 90 61 148.5t168 58.5v-39q-111 0 -156 -64q27 10 56.5 7.5t52 -17t38 -39t15.5 -55.5q0 -47 -35 -80t-84 -33 t-82.5 33t-33.5 80z" />
<glyph unicode="&#x201d;" horiz-adv-x="749" d="M61 1333q0 47 35 80t82 33q49 0 84 -33t35 -80q0 -92 -62.5 -149.5t-166.5 -57.5v39q109 0 153 64q-27 -10 -55.5 -7t-51 17t-38 39t-15.5 55zM453 1333q0 47 33.5 80t82.5 33q45 0 81 -32t36 -85q0 -102 -61.5 -152.5t-167.5 -50.5v39q111 0 155 64q-29 -10 -56.5 -7 t-51 17t-37.5 39t-14 55z" />
<glyph unicode="&#x201e;" horiz-adv-x="749" d="M61 104q0 47 35 80t82 33q49 0 84 -32.5t35 -80.5q0 -90 -62.5 -147t-166.5 -57v39q106 0 153 61q-27 -10 -55.5 -7t-51 17.5t-38 39t-15.5 54.5zM453 104q0 47 33.5 80t82.5 33t84 -32.5t35 -80.5q0 -90 -62.5 -147t-168.5 -57v39q109 0 155 61q-29 -10 -56.5 -7 t-51 17.5t-37.5 39t-14 54.5z" />
<glyph unicode="&#x2022;" horiz-adv-x="544" d="M61 416q0 43 16.5 81t45.5 67.5t67.5 46t81.5 16.5t81 -16.5t68 -46t46 -67.5t16 -81t-16 -82t-46 -67.5t-68 -45t-81 -16.5t-81.5 16.5t-67.5 45t-45.5 67.5t-16.5 82z" />
<glyph unicode="&#x2026;" horiz-adv-x="1159" d="M61 109q0 45 35 76.5t86 31.5q49 0 84 -31.5t35 -76.5t-35 -77t-84 -32q-51 0 -86 31.5t-35 77.5zM459 109q0 45 35.5 76.5t85.5 31.5q49 0 83.5 -31.5t34.5 -76.5t-34.5 -77t-83.5 -32t-85 31.5t-36 77.5zM856 109q0 45 36 76.5t85 31.5t85 -31.5t36 -76.5t-36 -77 t-85 -32t-85 31.5t-36 77.5z" />
<glyph unicode="&#x202f;" horiz-adv-x="371" />
<glyph unicode="&#x2039;" d="M55 416l203 215l27 -29l-176 -186l176 -187l-27 -28z" />
<glyph unicode="&#x203a;" d="M55 227l176 189l-176 186l27 29l203 -215l-203 -215z" />
<glyph unicode="&#x205f;" horiz-adv-x="464" />
<glyph unicode="&#x20ac;" horiz-adv-x="1357" d="M61 602v41h199q-2 20 -3 39.5t-1 40.5q0 20 1 39.5t3 40.5h-199v41h203q16 115 67.5 223.5t130.5 192t184.5 135t230.5 51.5q195 0 307 -113.5t112 -310.5q0 -49 -35.5 -84t-84.5 -35t-85 35t-36 86q0 37 17.5 63.5t45 42t60 14.5t63.5 -20q-33 129 -122 205t-226 76 q-82 0 -153.5 -27.5t-126 -79t-85 -121t-30.5 -153.5v-180h393v-41h-393v-160h393v-41h-393v-180q0 -78 29.5 -147.5t80.5 -122t121 -82t148 -29.5q145 0 237 72.5t127 205.5q-31 -18 -63.5 -18t-60 15.5t-45 42t-17.5 63.5q0 49 35.5 85t85.5 36q51 0 85.5 -35t34.5 -86 q0 -197 -112 -309.5t-307 -112.5q-127 0 -231.5 51t-183.5 135t-130 192.5t-68 223.5h-203z" />
<glyph unicode="&#x2122;" horiz-adv-x="1064" d="M61 1370q0 35 21.5 55.5t56.5 20.5h467l119 -268l137 268h142v-41h-52v-342h52v-39h-201v39h51v280q-37 -72 -76 -147.5t-88 -169.5l-135 303v-266h51v-39h-143v39h51v342h-184v-342h51v-39h-201v39h51v342h-88q6 -6 11.5 -15.5t5.5 -19.5q0 -18 -14.5 -31.5t-34.5 -13.5 t-35 13.5t-15 31.5z" />
<glyph unicode="&#x25fc;" horiz-adv-x="829" d="M0 0v829h829v-829h-829z" />
</font>
</defs>
</svg>
